<svg xmlns="http://www.w3.org/2000/svg" width="32" height="52" viewBox="0 0 32 52" fill="none"><g fill="black"><path d="m16.11 39.06c.21 0 .37-.17.37-.39 0-.21-.16-.38-.37-.38-.21 0-.38.17-.38.38 0 .22.17.39.38.39z"/><path d="m16.07 34.69c-2.15.03-3.88 1.83-3.85 4.03 .03 2.19 1.79 3.97 3.93 3.94 2.15-.03 3.87-1.84 3.84-4.03v-.01c-.02-2.2-1.79-3.96-3.92-3.93zm3.44 2.66c-.11.09-.17.24-.11.37 .04.16.16.27.28.26 0 .04.01.07.01.11-.49.03-.96.07-1.44.16-.62.1-1.14.2-1.36.25-.02-.04-.03-.1-.05-.14 .23-.07.73-.27 1.29-.53 .45-.18.89-.39 1.31-.64 .03.06.04.1.07.16zm-.46-.85c-.11.17-.07.38.1.49 .07.05.15.08.22.06 .01.04.03.07.06.12-.46.15-.92.32-1.35.54-.57.25-1.06.48-1.25.61-.01-.04-.04-.09-.07-.13 .19-.13.63-.44 1.11-.84 .39-.3.75-.63 1.1-.97 .03.04.05.07.08.12zm-.64-.72c-.07.19.04.4.22.46 .07.03.16.03.24 0 .03.03.06.07.07.1-.4.27-.79.55-1.17.87-.48.4-.88.75-1.05.92-.03-.04-.07-.07-.1-.1 .17-.17.5-.59.86-1.11 .29-.4.57-.79.82-1.22 .03.03.07.06.11.08zm-1.71 2.88c0 .33-.24.6-.56.61-.32 0-.59-.25-.6-.58-.01-.33.25-.6.57-.61 .33-.02.59.25.59.58zm.91-3.37c-.02.2.12.37.32.38 .08 0 .16-.01.23-.07 .03.03.07.04.1.07-.33.37-.64.75-.92 1.15-.37.52-.66.97-.79 1.17-.04-.03-.08-.06-.12-.07 .11-.21.33-.71.55-1.3 .18-.45.35-.92.49-1.41l.14.08zm-.91-.29c-.01.12.1.24.27.29 .12.05.28 0 .36-.12l.11.04c-.22.45-.42.9-.58 1.36-.22.58-.4 1.11-.47 1.34-.05-.02-.1-.03-.14-.03 .05-.23.14-.77.21-1.41 .06-.49.09-.98.11-1.48l.13.01zm-.94-.03c.08.19.29.26.47.16 .07-.04.13-.1.17-.17l.12.01c-.09.49-.18.97-.22 1.47-.07.63-.11 1.18-.11 1.42h-.07-.07c0-.24-.05-.78-.15-1.41-.06-.49-.15-.98-.26-1.46l.12-.02zm-.91.22c.08.11.23.17.36.11 .15-.04.26-.17.25-.28l.12-.02c.03.5.07.98.15 1.48 .1.63.18 1.17.25 1.4-.04.01-.09.03-.14.04-.06-.23-.26-.74-.5-1.32-.18-.46-.38-.92-.62-1.34l.13-.07zm-.84.45c.17.12.38.07.49-.1 .04-.07.07-.15.05-.23l.11-.05c.14.47.32.94.52 1.39 .25.59.47 1.08.6 1.28-.05.03-.09.05-.13.08-.12-.22-.43-.65-.82-1.14-.29-.4-.61-.77-.94-1.13 .04-.03.07-.06.12-.1zm-.69.67c.18.07.39-.04.44-.23 .03-.07.03-.15 0-.24 .03-.03.07-.06.1-.08 .26.41.54.81.85 1.19 .39.5.73.91.88 1.08-.04.03-.06.07-.09.1-.17-.17-.59-.51-1.09-.89-.37-.3-.77-.59-1.19-.84 .04-.02.06-.05.1-.09zm-.5.83c.19.01.36-.13.37-.33 0-.09-.01-.17-.07-.24 .03-.05.06-.07.09-.1 .36.33.73.64 1.12.94 .5.38.93.69 1.14.81-.03.04-.06.08-.07.13-.21-.12-.69-.34-1.26-.57-.45-.2-.9-.36-1.36-.5 0-.06.01-.1.04-.14zm-.28.94c.11.01.24-.1.28-.27 .05-.13 0-.29-.11-.37 .01-.05.03-.09.04-.13 .43.23.87.42 1.32.61 .57.24 1.08.43 1.3.48-.01.05-.03.1-.04.15-.22-.06-.75-.15-1.37-.22-.48-.07-.96-.11-1.45-.11 .02-.06.03-.1.03-.14zm-.03.96c.18-.08.25-.29.17-.48-.04-.07-.1-.13-.17-.17 0-.04.02-.09.02-.14 .47.11.94.18 1.43.22 .61.08 1.15.13 1.38.12 0 .03 0 .04 0 .07 0 .03 0 .06 0 .07-.23 0-.76.06-1.37.16-.49.05-.96.15-1.43.27-.01-.03-.03-.09-.03-.12zm.21.94c.11-.08.17-.24.11-.37-.04-.15-.16-.27-.27-.25-.02-.05-.02-.09-.03-.14 .48-.03.95-.08 1.44-.16 .61-.09 1.14-.19 1.36-.26 .01.05.03.1.04.14-.22.08-.72.26-1.29.52-.44.18-.89.4-1.3.64-.02-.03-.04-.07-.06-.12zm.53.96c-.03-.03-.06-.07-.08-.1 .11-.17.07-.39-.1-.5-.07-.04-.15-.07-.22-.06-.02-.04-.05-.08-.06-.13 .46-.14.92-.32 1.36-.52 .57-.26 1.06-.49 1.25-.6 .01.04.04.09.07.13-.19.13-.64.44-1.12.84-.38.28-.75.6-1.1.94zm.57.61c.05-.18-.04-.4-.24-.46-.07-.02-.15-.02-.22 0-.03-.04-.06-.07-.08-.11 .4-.27.79-.55 1.16-.87 .49-.4.89-.74 1.06-.91 .03.04.07.07.09.1-.16.17-.49.6-.87 1.11-.29.39-.57.8-.82 1.23-.01-.03-.04-.06-.08-.09zm.8.51c.02-.2-.12-.37-.32-.38-.08 0-.16.01-.23.07-.04-.03-.07-.06-.11-.09 .32-.37.62-.75.91-1.15 .38-.51.68-.95.79-1.17 .05.03.09.06.13.07-.11.22-.33.72-.57 1.3-.19.46-.35.93-.49 1.4l-.11-.05zm.91.29c.01-.12-.1-.24-.27-.29-.12-.05-.28 0-.36.12l-.14-.06c.22-.44.42-.9.6-1.35 .23-.59.42-1.11.47-1.34 .04.01.1.03.14.04-.06.23-.14.77-.22 1.41-.07.48-.11.98-.13 1.48l-.09-.01zm.95.03c-.08-.19-.29-.26-.47-.18-.07.05-.12.1-.17.18l-.13-.02c.11-.48.18-.97.23-1.46 .08-.63.13-1.19.13-1.43h.07 .07c0 .24.05.78.13 1.41 .06.5.14.98.27 1.47l-.13.03zm.92-.23c-.08-.12-.24-.17-.36-.12-.15.05-.27.17-.25.29l-.14.03c-.01-.5-.07-.98-.14-1.48-.08-.63-.18-1.17-.24-1.4 .05-.01.1-.01.14-.04 .07.23.25.74.5 1.32 .18.46.39.91.63 1.36l-.11.04h-.03zm.83-.46c-.16-.11-.37-.07-.48.1-.05.07-.07.16-.06.23l-.14.07c-.14-.47-.32-.94-.51-1.39-.24-.59-.47-1.09-.58-1.3 .04-.01.08-.04.12-.07 .12.21.43.65.81 1.15 .29.4.59.79.93 1.14-.03.02-.06.04-.09.07zm.7-.67c-.18-.07-.39.05-.45.23-.03.07-.03.16 0 .24-.04.03-.08.07-.12.1-.27-.41-.54-.82-.85-1.21-.37-.5-.72-.92-.89-1.09 .04-.03.07-.07.1-.1 .17.17.58.51 1.08.89 .38.32.78.6 1.18.86-.01.03-.03.07-.05.08zm.5-.82c-.2-.02-.37.13-.38.33 0 .08.01.17.07.24-.03.04-.06.08-.1.13-.34-.35-.72-.66-1.11-.94-.5-.39-.93-.7-1.14-.83 .03-.04.06-.09.07-.14 .21.11.7.32 1.28.57 .44.18.9.35 1.37.48-.02.06-.04.11-.06.16zm.27-.93c-.11-.01-.23.1-.27.27-.06.13 0 .29.11.37-.02.05-.03.07-.05.1-.43-.23-.87-.42-1.33-.6-.58-.22-1.08-.41-1.3-.47 .01-.04.03-.09.03-.14 .22.06.74.14 1.37.22 .49.07.96.1 1.44.11 .02.04 0 .09 0 .14zm-1.4-.42c-.61-.08-1.15-.12-1.39-.12 0-.03 0-.04 0-.07 0-.03 0-.06 0-.07 .24 0 .77-.07 1.38-.16 .48-.05.95-.15 1.43-.28 0 .05.01.1.01.15-.18.09-.25.3-.15.49 .04.07.1.13.16.17 0 .04 0 .07-.01.11-.49-.1-.96-.18-1.43-.22z"/><path d="m18.77 3.98c-.14-.09-.33-.49-.75-.47-.41.01-.66.54-.75.64-.08.1.06.2.17.16 .25-.12.22-.49.63-.52 .31-.01.41.32.65.35 .23.02.19-.06.05-.16z"/><path d="m13.37 4.21c.16-.05.38-.39.64-.49 .27-.1.47.09.59.24 .07.1.16.22.26.23 .15.02.14-.13.11-.14-.12-.01-.11-.38-.35-.56-.19-.11-.41-.14-.62-.05-.26.08-.47.31-.65.45-.18.15-.28.25-.28.25 .07.05.19.08.3.07z"/><path d="m15.94 8.34c-.15 0-.03.28-.21.31-.14.03-.12-.29-.19-.26-.14.06 0 .33.05.39 .09.08.25.24.37.04 .05-.13.07-.48-.02-.48z"/><path d="m14.68 9.08c-.06.02-.18.37-.03.56 .13.18.27.2.28.16 .01-.04-.13-.23-.21-.28-.08-.06-.04-.44-.04-.44z"/><path d="m17.41 9.86c.14-.03.34-.27.36-.49 .03-.24-.02-.51-.07-.52-.09-.03 0 .35-.15.57-.14.18-.4.5-.14.44z"/><path d="m24.05 41.12h-.22v.23h.22v-.23z"/><path d="m23.94 41.61h-.23v.2h.23v-.2z"/><path d="m23.89 42.09h-.22v.17h.22v-.17z"/><path d="m23.71 36.01h-.22v.2h.22v-.2z"/><path d="m24.05 36.01h-.22v.2h.22v-.2z"/><path d="m24.1 36.57h-.22v.21h.22v-.21z"/><path d="m23.39 35.53h-.22v.2h.22v-.2z"/><path d="m24.48 36.6h-.22v.21h.22v-.21z"/><path d="m25.03 37.92h-.22v.21h.22v-.21z"/><path d="m25.44 37.08h-.23v.21h.23v-.21z"/><path d="m25.03 37.54h-.22v.21h.22v-.21z"/><path d="m25.44 36.67h-.23v.21h.23v-.21z"/><path d="m24.98 36.62h-.22v.22h.22v-.22z"/><path d="m24.48 36.08h-.22v.2h.22v-.2z"/><path d="m25.03 37.14h-.22v.21h.22v-.21z"/><path d="m19.77 42.01h-.22v.15h.22v-.15z"/><path d="m19.81 42.46h-.22v.16h.22v-.16z"/><path d="m20.22 42.02h-.22v.16h.22v-.16z"/><path d="m19.37 42.5h-.22v.16h.22v-.16z"/><path d="m20.2 42.46h-.22v.16h.22v-.16z"/><path d="m20.63 42.46h-.22v.16h.22v-.16z"/><path d="m20.95 41.95h-.22v.16h.22v-.16z"/><path d="m20.63 40.91h-.22v.16h.22v-.16z"/><path d="m20.22 41.39h-.22v.16h.22v-.16z"/><path d="m20.63 41.39h-.22v.16h.22v-.16z"/><path d="m20.59 41.95h-.22v.16h.22v-.16z"/><path d="m21.15 39.87h-.23v.16h.23v-.16z"/><path d="m21.47 40.91h-.23v.16h.23v-.16z"/><path d="m21.01 41.39h-.22v.16h.22v-.16z"/><path d="m21.06 40.91h-.22v.16h.22v-.16z"/><path d="m21.08 40.44h-.22v.16h.22v-.16z"/><path d="m20.74 35.91h-.22v.2h.22v-.2z"/><path d="m20.85 36.91h-.22v.21h.22v-.21z"/><path d="m20.74 35.43h-.22v.2h.22v-.2z"/><path d="m20.34 35.43h-.22v.2h.22v-.2z"/><path d="m20.79 36.35h-.23v.22h.23v-.22z"/><path d="m10.11 37.99h-.22v.16h.22v-.16z"/><path d="m10.11 37.65h-.22v.16h.22v-.16z"/><path d="m10.5 36.45h-.22v.16h.22v-.16z"/><path d="m10.45 35.88h-.23v.16h.23v-.16z"/><path d="m9.75 36.45h-.22v.16h.22v-.16z"/><path d="m10.45 35.41h-.23v.16h.23v-.16z"/><path d="m11.11 35.41h-.22v.16h.22v-.16z"/><path d="m9.75 37.14h-.22v.15h.22v-.15z"/><path d="m10.54 38.02h-.22v.16h.22v-.16z"/><path d="m10.11 35.41h-.22v.16h.22v-.16z"/><path d="m11.57 35.39h-.22v.15h.22v-.15z"/><path d="m10.75 35.41h-.22v.16h.22v-.16z"/><path d="m10.75 35.88h-.22v.16h.22v-.16z"/><path d="m9.75 37.63h-.22v.16h.22v-.16z"/><path d="m8.54 36.5h-.22v.15h.22v-.15z"/><path d="m8.6 37.65h-.22v.16h.22v-.16z"/><path d="m10.11 35.88h-.22v.16h.22v-.16z"/><path d="m8.92 35.93h-.22v.15h.22v-.15z"/><path d="m8.92 37.14h-.22v.15h.22v-.15z"/><path d="m8.92 36.5h-.22v.15h.22v-.15z"/><path d="m8.52 35.54h-.23v.16h.23v-.16z"/><path d="m8.11 36.5h-.22v.15h.22v-.15z"/><path d="m8.11 35.93h-.22v.15h.22v-.15z"/><path d="m8.11 35.54h-.22v.16h.22v-.16z"/><path d="m8.5 37.14h-.22v.15h.22v-.15z"/><path d="m8.54 35.93h-.22v.15h.22v-.15z"/><path d="m9.75 35.44h-.22v.16h.22v-.16z"/><path d="m9.74 35.93h-.22v.15h.22v-.15z"/><path d="m9.78 38.02h-.22v.16h.22v-.16z"/><path d="m10.11 36.47h-.22v.15h.22v-.15z"/><path d="m10.1 37.14h-.22v.15h.22v-.15z"/><path d="m9.28 37.65h-.22v.16h.22v-.16z"/><path d="m8.98 37.65h-.23v.16h.23v-.16z"/><path d="m9.25 35.46h-.22v.15h.22v-.15z"/><path d="m9.28 37.14h-.22v.15h.22v-.15z"/><path d="m8.92 35.54h-.22v.16h.22v-.16z"/><path d="m9.28 36.47h-.22v.15h.22v-.15z"/><path d="m9.28 35.93h-.22v.15h.22v-.15z"/><path d="m7.41 40.9h-.23v.18h.23v-.18z"/><path d="m7.8 41.37h-.23v.18h.23v-.18z"/><path d="m6.63 41.79h-.22v.19h.22v-.19z"/><path d="m6.63 41.32h-.22v.19h.22v-.19z"/><path d="m6.21 41.31h-.22v.18h.22v-.18z"/><path d="m6.63 42.29h-.22v.19h.22v-.19z"/><path d="m9.67 42.38h-.22v.18h.22v-.18z"/><path d="m8.93 42.38h-.22v.18h.22v-.18z"/><path d="m9.27 42.36h-.23v.19h.23v-.19z"/><path d="m9.27 41.39h-.23v.19h.23v-.19z"/><path d="m8.93 41.91h-.22v.18h.22v-.18z"/><path d="m8.89 41.42h-.22v.19h.22v-.19z"/><path d="m8.54 41.91h-.22v.18h.22v-.18z"/><path d="m9.27 41.89h-.23v.19h.23v-.19z"/><path d="m7 40.9h-.22v.18h.22v-.18z"/><path d="m10.1 42.36h-.22v.19h.22v-.19z"/><path d="m8.54 42.38h-.22v.18h.22v-.18z"/><path d="m9.67 41.91h-.22v.18h.22v-.18z"/><path d="m10.1 41.91h-.22v.18h.22v-.18z"/><path d="m7.45 41.32h-.22v.19h.22v-.19z"/><path d="m7.45 42.36h-.22v.19h.22v-.19z"/><path d="m7.11 42.36h-.22v.19h.22v-.19z"/><path d="m7.41 41.89h-.23v.19h.23v-.19z"/><path d="m7 41.32h-.22v.19h.22v-.19z"/><path d="m7.06 41.82h-.22v.19h.22v-.19z"/><path d="m7.82 42.36h-.22v.19h.22v-.19z"/><path d="m8.2 41.89h-.22v.19h.22v-.19z"/><path d="m7.8 41.91h-.23v.18h.23v-.18z"/><path d="m8.2 41.37h-.22v.18h.22v-.18z"/><path d="m8.49 41.42h-.22v.19h.22v-.19z"/><path d="m8.2 42.36h-.22v.19h.22v-.19z"/><path d="m12.17 41.37h-.22v.18h.22v-.18z"/><path d="m11.18 39.76h-.22v.18h.22v-.18z"/><path d="m10.76 39.39h-.22v.18h.22v-.18z"/><path d="m10.82 39.86h-.22v.18h.22v-.18z"/><path d="m11.25 40.34h-.22v.18h.22v-.18z"/><path d="m11.58 39.76h-.22v.18h.22v-.18z"/><path d="m11.18 39.39h-.22v.18h.22v-.18z"/><path d="m11.69 40.25h-.22v.19h.22v-.19z"/><path d="m6.77 37.65c.03-.09.1-.11.21-.24 .11-.13.05-.34.02-.32-.09.16-.18.15-.26.3-.04.12-.01.39.03.26z"/><path d="m7.49 38.75c-.04-.1-.01-.56-.07-.55-.13.02-.13.42-.11.53 .01.2.22.13.18.02z"/><path d="m6.34 36.78c.01.11.08.2.14.16 .05-.05-.07-.12.05-.29 .08-.13 0-.38-.04-.28-.07.18-.18.21-.15.41z"/><path d="m6.17 36.34c.06.04.13 0 .08-.13-.02-.07.07-.13.13-.16 .05-.02-.07-.08-.18 0-.08.06-.11.18-.06.26 .02 0 .02.02.03.03z"/><path d="m6.63 37.22c.01-.17.14-.2.17-.28 .02-.09-.02-.27-.05-.17-.02.1-.19.17-.22.3-.03.17.09.25.1.15z"/><path d="m6.05 35.81c-.06-.05-.21.13-.14.27 .07.15.14.16.09-.07-.01-.1.09-.17.05-.2z"/><path d="m6.93 37.71c-.11.08-.16.22-.12.35 .06.14.1.17.14-.01 .01-.09.07-.17.14-.22 .09-.08.12-.24.04-.35-.03 0-.06.11-.2.23z"/><path d="m7.03 38.18c-.08.2.04.37.1.37 .08 0 .08-.22.08-.29 0-.07.07-.31.03-.31-.04-.02-.15.11-.21.23z"/><path d="m5.84 35.66c-.1 0-.17.22-.13.3 .1.12.09-.02.09-.09 0-.1.13-.21.04-.21z"/><path d="m7.86 38.82c.1.04.12-.02.07-.1-.04-.1-.2-.16-.2-.12 0 .05.06.19.13.22z"/><path d="m13.32 6.03c-.03.03-.06.06-.08.1 0 .01-.02.01-.02.03 .04-.05.07-.07.1-.13z"/><path d="m23.53 37.81c-.08.01-.15.08-.15.17 .01.08.15.05.21 0 .04-.05.03-.12-.03-.16-.01 0-.01-.01-.03-.01z"/><path d="m22.2 37.19c.14-.05.25-.18.27-.34 0-.13-.14.03-.21-.13-.04-.1.05-.18.15-.28 .1-.1-.22-.11-.5.01-.28.13-.37.54-.28.5 .03-.01.17-.14.21-.11 .01.01-.04.05-.06.1 0 .08.06.15.14.17 .06 0 .05-.07.06-.13 .01-.06.05-.11.14-.09 .12.05.05.18-.1.23-.11.05-.03.17.18.07z"/><path d="m30.29 8.32c-.19-.28-.37-.37-.54-.63-.14-.21-.04-.32-.05-.69-.03-1.09-.96-1.27-1.56-1.4-.46-.1-.65-.06-.71-.24-.09-.33-.22-.64-.37-.94-.28-.47-.76-.75-.99-.91-.38-.27-.86-.37-1.31-.3-.39.09-.75.27-1.06.54-.5.43-.44.74-.69.74-.34 0-.77.14-1.14.26-.38.11-.45-.02-.5-.14-.06-.13 0-.39-.21-.7-.21-.32-.51-.34-.44-.76 .05-.37.07-.84-.1-1.19-.14-.27-.26-.17-.26-.46 0-.3-.12-.6-.3-.84-.26-.3-.81-.33-1.16-.25-.35.07-.4.04-.47-.09-.13-.21-.43-.3-.7-.24-.15.04-.25.24-.46.2-.2-.03-.16-.27-.5-.2-.19.04-.26.28-.4.17-.14-.12-.22-.27-.34-.23-.13.04-.17.24-.31.24-.14 0-.35-.28-.71-.24-.11.01-.23.06-.33.1-.24.09-.1-.26-.6-.06-.12.05-.25.49-.37.43-.1-.03-.31-.28-.64-.13-.21.1-.2.22-.5.22-.25 0-.53-.19-1.03.07-.5.25-.53.67-.48.81 .09.34.05.9.15 1.04 .1.14.07.41-.2.68-.19.2-.34.77-.49.97-.16.2-.39.08-.57 0-.18-.09-.49-.31-.89-.33-.38-.01-.63-.05-.93-.44-.22-.27-.54-.44-.89-.48-.31-.05-.62.03-.89.2-.11.08-.32.38-.5.34-.18-.05-.39.03-.61.14-.26.16-.5.37-.68.64-.14.19-.25.39-.33.6-.1.17-.22.31-.36.44-.16.1-.59.51-.92.54-.12.02-.36.17-.55.39-.2.21-.21.69-.27 1.01-.05.31-.46.65-.62.82-.17.17-.57.84-.5 1.24 .04.29.1.53.23.58 .14.06.24 0 .34.09 .05.09.05.21.01.3-.04.06.38.47.51.55 .14.09.3.05.37.19 .09.21.2.43.33.64 .12.18.07.21.26.47 .2.26.42.4.54.57 .17.21.24.38.27.43 .11.12.43.08.73.01 .31-.07.56-.48.61-.68 .06-.2.17-.34.17-.17 0 .17.1.57.08.79-.01.23-.18.22-.27.42-.1.2-.05.34-.09.52-.04.22-.61.57-.62 1.21 0 .15.19.27.01.47-.18.2-.14.4-.15 1.04-.01.43.15.32.05.47-.25.42-.05.91.17 1.17 .22.26.28.14.17.41-.11.27.21.96.4 1.2 .19.24.67.43.67.88 0 .54.68.84.73.88 .06.05.03.66.17.89 .14.22.64.28.5.62-.18.46-.04.86-.03 1.48 .01.63.43 2.34.51 2.88 .09.54-.4 1.15-.34 2.22 .05 1.07-.24 1.95-.52 1.99-.27.05-.75-.15-1.11 0-.36.16-.44.79-.47.9-.03.11-.6.29-.72.67-.13.38.08.9.15 1.02 .07.13-.21.26-.33.33-.18.1-.26.26-.36.49-.06.12-.2.07-.32.08-.18.07-.32.23-.38.41-.02.16-.04.32-.02.47 .01.16-.13.2-.16.32-.02.11.06.6-.07.78-.04.06-.04 1.01-.04 1.01-.12.1-.23.23-.33.36-.14.2-.08.77 0 .92 .1.17.49.14.47.3-.01.16.02 1.57.15 1.78 .14.21.42.93.5 1.17 .09.24.34.23.45.35 .14.15.33.22.53.2 .4 0 1.19.25 1.52.22 .18-.02.36-.05.32 0-.53.45-.28 1.08-.11 1.38 .17.3.76.5 1.04.57 .24.05 8.65.24 8.65.24 0 0 6.99-.06 7.4-.09 .36-.01.7-.1 1.01-.28 .32-.2.69-.68.64-1.14-.06-.45-.09-.65 0-.67 .08-.01.68-.2 1.18-.37 .5-.17 1.15-.7 1.2-.9 .05-.11.09-.52.34-.61 .19-.05.11-.35.16-.45 .06-.1.28-.13.28-.44 .02-.43.07-.84.15-1.27 .06-.14.25-.27.38-.34 .17-.12.11-.9.05-.97-.11-.14-.43-.17-.47-.57-.02-.19.04-.44.04-.66 0-.21-.22-.25-.19-.42 .01-.12-.04-.43-.15-.53-.11-.1-.29-.06-.31-.14-.01-.22-.12-.4-.29-.51-.12-.08-.05-.18-.11-.36-.06-.19-.72-.36-.46-.78 .27-.43-.01-1.04-.43-1.2-.15-.06-.04-.37-.19-.57-.16-.2-.54-.58-1.02-.54-.23.01-.79.03-.86-.04-.23-.27-.36-.63-.36-1 0-.38-.32-1.14-.52-1.59-.13-.26-.23-.53.06-1.1 .3-.57.39-1.72.39-2.15 0-.38-.12-2.22.03-2.25 .58-.11.15-.51.45-.71 .26-.19-.07-.37.2-.57 .28-.2.43-.41.45-.61 .01-.2.29-.56.4-.74 .11-.19-.03-.43.06-.49 .25-.15.7-.58.7-.81 0-.23-.21-.38-.01-.57 .25-.25.42-.58.5-.94 .07-.42-.36-.2.01-.64 .28-.33.38-.75.28-1.17-.08-.29-.26-.25-.14-.51 .06-.15.08-.31.07-.48-.03-.24-.12-.47-.28-.66-.22-.28.13-.08.1-.41-.03-.33-.32-.61-.39-.8-.03-.07-.07-.31-.11-.45-.11-.2-.25-.39-.4-.56-.1-.11-.22-.47.08-.47 .4.02.32.49.39.69 .08.25.35.34.46.41 .19.06.41.03.6-.09 .16-.1.47-.57.61-.71 .13-.14.43-.3.5-.51 .06-.23.19-.43.36-.6 .18-.17.54-.37.66-.48 .21-.19.42-.39.6-.6 .25-.26.42-.57.51-.93 .07-.38-.22-.69-.5-1.08zm-27.49 30.87c-.04 0-.06-.09-.06-.19 0-.1.03-.18.06-.18 .03 0 .05.08.05.18 0 .1-.02.19-.05.19zm25.76-.99c.14.1.23.26.25.43 0 .19-.09.36-.22.47-.06.03-.1-.84-.03-.9zm-.52.05c0-.59-.01-1.7.1-1.78 .11-.09.34 2.06.18 2.96-.05.34-.12 1.11-.26 1.47-.07.14-.02-2.07-.02-2.65zm-.81-2.32c.07 0 .34.85.41 1.51 .09.75.13 2.17.04 2.74-.08.59-.26 1.61-.34 1.68-.09.07-.11-1.83-.09-2.19 .03-.36-.01-1.85-.05-2.35-.03-.4-.03-1.39.03-1.39zm-5.93-30c.1-.2.25-.39.76-.77 .2-.14.54-.38.75-.27 .25.14.47 0 .6.1 .22.17.15.18.25-.07 .07-.2-.03-.37.29-.74 .28-.3.65-.47 1.04-.49 .42 0 1.01.17 1.13.63 .05.24-.37.57-.28.57 .08-.01.16-.04.23-.09 .07-.02.13-.08.18-.14 .07-.11.02-.25.18-.25 .13 0 .07.2.07.25-.01.07-.04.13-.09.17-.1.06-.13.09.04.07 .21-.02.15-.2.29-.17 .14.03.08.47.04.63-.04.16-.16.51-.48.46-.24-.05-.61-.19-.66.05-.04.24 0 .4-.04.53-.08.26-.16.21-.23-.04-.03-.12-.1-.17-.11 0-.02.14.01.28-.17.37-.18.08-.85.12-1.03.51-.1.21.02.54-.12.64-.2.14-.52.04-.56-.19-.03-.32.08-.64.31-.86 .23-.23.15-.37.37-.6 .06-.06 0-.34-.08-.33-.22.01-.02.43-.21.37-.19-.06-.4-.37-.29-.44 .22-.14 0-.54-.13-.56-.15-.01-.05.36-.02.62 .01.22-.14.69-.37.82-.38.23-.63.06-.83.14-.14.06-.23.09-.21.2 .03.12.03.29-.07.35-.16.08-.73-.37-.51-.66 .06-.07.22.03.33-.06 .18-.14.14-.39.41-.44 .26-.04.68-.11.83-.28 .21-.24.21-.59.14-.63-.13-.07.01.27-.18.37-.2.1-.31.02-.56.12-.25.09-.72.65-.93.61-.12-.03-.21-.22-.08-.5zm3.68 2.63c.21.05-.04-.14.18-.4 .07-.08.29-.27.48-.24 .05.02.14.16 0 .43-.07.14-.02.5-.12.7-.11.22-.5.44-.86.5-.36.05-.6.18-.64.29-.04.12.29.23.42.29 .12.06 0 .24-.24.27-.28.01-.53-.19-.6-.47-.04-.31.17-.95.34-1.07 .16-.11.29.16.41.2 .25.06.52.03.75-.1 .1-.06.13-.2.04-.21-.2-.04-.4.01-.56-.09-.17-.1-.34-.58-.38-.72-.04-.15-.08-.36.08-.4 .25-.07.5-.19.74-.33 .11-.08.29-.41.47-.46 .11-.02.22.06.24.26 .01.2-.07.46-.23.43-.05-.02-.11 0-.26.15-.25.26-.4.4-.46.6-.05.13 0 .29.14.34 .02.02.04.02.06.02v.01zm-.42 6.95c.28 0 .25-.14.26-.28 .03-.27.45-.64.64-.64 .18 0 .34.15.34.34 0 .04 0 .07-.02.11-.12.31-.33.26-.61.58-.23.28-.15.4-.21.55-.02.05-.19.17-.19-.22 0-.14-.38-.03-.49-.05-.26-.09-.29-.6-.52-.94-.2-.29-.46-.13-.6-.65-.08-.32.07-.32-.13-.65-.19-.33-.26-.38-.31-.58-.03-.13-.16-.43.3-.8 .42-.33.64-.21.71-.13 .08.1.14.21.15.34 0 .23-.42.17-.62.44-.11.16-.23.32-.09.39 .14.07.35-.26.48-.2 .12.06.38-.02.65-.19 .19-.12.26-.08.25.13-.03.32-.22.46-.52.61-.37.2-.5.67-.41.86 .08.18.21.23.29.04 .1-.26.04-.47.43-.53 .35-.05.28-.32.46-.32 .25 0 .25.28.15.47-.1.18-.69.48-.69.89 0 .42.15.44.3.43zm-.55 2.45c.01.04-.1.16.05.65 .07.26.06.46 0 .29-.08-.21-.15-.43-.19-.64-.03-.17-.32-.24-.25-.49 .07-.24.23-.44.32-.68 .09-.23.2-.45.33-.67 .06-.1.28-.04.36.23 .08.27-.05.57-.17.78-.16.33-.47.39-.45.53zm-.35 3.32c-.21-.13-.46-.43-.42-.99 .02-.24.29-.52.5-.64 .17-.08.07-.34.17-.34 .17.02.18.26.12.47-.05.22-.22.3-.36.63-.14.33.25 1.04-.01.87zm-.5-1.07c.07.08-.31.16-.47-.23-.13-.26.01-.34-.09-.65-.09-.32.53-.86.64-.94 .06-.05.25.35.25.51 0 .16-.5.58-.54.84-.04.26.15.37.21.47zm-.94.95c-.07.22.15.24.16.32 .02.07 0 .18-.36-.16-.11-.11-.15-.29-.05-.58 .07-.22.16-.42.29-.6 .12-.23.16-.2.16-.2 0 0 .21.5-.08.65-.15.09-.04.32-.12.57zm-.5-.82c-.05.27-.09.65-.21.58-.13-.07-.28.38-.43.37-.16-.01-.18-.27-.14-.43 .04-.15.47-.55.51-.64 .04-.08-.05-.37-.08-.5-.03-.12.35-.55.42-.55 .09 0 .27.53.18.67-.1.14-.23.23-.25.5zm-.02 1.38c-.14.03-.3-.14-.32-.29-.01-.11.06-.21.16-.25 .15-.06.16.22.26.27 .11.07 0 .25-.1.27zm-.94-2.09c-.04-.08-.22-.19-.17-.32 .1-.17.28 0 .38.1 .14.16.19.51.01.64-.12.09-.25.12-.19-.08 .05-.12.04-.25-.03-.34zm.29 10.13c.07-.03.29.76.36.97 .03.07.13.6.13.68 0 .13-.41-.21-.37-.37 .13-.61-.27-1.22-.12-1.28zm.11 1.82c.08-.04.56-.11.51 0-.04.13-.48.35-.69.27-.07-.02.08-.21.18-.27zm3.62 2.97c.17.07.38.39.32.56-.04.12-.18.28-.28.18-.09-.1-.02-.39-.19-.45-.1-.04-.29-.1-.33-.28 0-.07.33-.07.48-.01zm-.32-.46c.07-.03.17.07.16.16-.02.08-.07.17-.16.1-.07-.05-.08-.15-.04-.22 .02-.01.03-.03.04-.04zm1.35 8.51c-.06.02-.36.06-.42.07 .05-.01-.05-.27.07-.32 .23-.12.2-.43.2-.47 0-.05-.17-.14-.17-.27 .04-.16.1-.3.17-.44 0 0 .29.32.34.38 .06.06.13.33.05.33-.09 0-.16.45-.21.48-.06.04.05.22-.03.24zm.25-7.68c-.07-.03-.12-.12-.03-.15 .06-.01.13 0 .18.03 .17.1.36.53.06.5-.1 0 0-.28-.21-.38zm-.03-.66c-.11.23-.05-.1-.05-.2-.03-.2-.14-.37-.31-.48-.1-.07-.07.07-.11.13-.04.05-.11-.2-.11-.25 0-.04.01-.08.12-.04 .12.07.23.14.31.26 .07.07.26.35.15.58zm-.18-.17c0 .07-.08.28-.12.3-.04.01-.06-.29-.04-.39 .01-.1.02-.19.08-.18 .04 0 .08.2.08.27zm-.29.58c.18.09.29.47.21.57-.08.1-.29.13-.28-.17 .01-.18-.12-.24-.23-.31-.05-.03-.14-.19-.05-.2 .13.01.24.06.35.11zm-.1 1.78l-.04 1.07h-.21v.21h.21l-.01.26h-.2v.21h.2l-.02.2c0 0-1.01.05-1-.11 0-.03 0-.07 0-.1h.13v-.2h-.13c0-.1 0-.18 0-.26h.12v-.21h-.13c0-.07-.01-.13-.04-.2h.17v-.21h-.23v.07c-.12-.23-.32-.21-.52-.31-.07-.05-.16-.08-.21-.12h.08v-.21h-.21v.14c-.14-.07-.23-.11-.23-.11 0 0-.04-.19-.07-.39h.15v-.21h-.18c0-.02 0-.03 0-.06-.03-.18-.07-.35-.14-.51 .24-.07.49-.06.71.03h-.17v.21h.22v-.2c.09.03.17.06.25.09h-.08v.21h.22v-.14c.28.13.56.28.82.44h-.16v.21h.22v-.17c.29.22.48.37.48.37zm-1.05-1.19c-.18.03-.36.07-.46-.1-.04-.09-.22-.43-.29-.51-.2-.28-.08-.22.03-.22 .26 0 .29.13.37.2 .08.07.43.61.35.63zm-.89-.1c-.14.01-.39.08-.4-.2 0-.22-.28-.39-.28-.54 0-.07.25-.09.4-.05 .17.05.45.77.28.79zm-.68-.3c.01.06.07.3-.01.3-.09 0-.2 0-.28 0-.11 0-.06-.32-.29-.49-.24-.17-.35-.35-.27-.34 0 0 .21 0 .39 0 .04-.01.43.27.46.53zm-.57.78c-.03.1-.11.17-.21.19-.12 0-.22-.16-.22-.26-.01-.1.06-.2.15-.23 .02 0 .03 0 .06 0 .12 0 .22.1.22.23 0 .03 0 .06 0 .07zm.03-1.72c-.03.11-.28.16-.35.04-.04-.06.1-.24.03-.45-.07-.22-.19-.47-.13-.5 .1-.02.52.62.45.91zm-.32.95c0 .13-.11.13-.24.13-.15 0-.29.03-.29-.16 0-.18-.32-.37-.32-.55 0-.06.16-.04.29-.03 .14.01.17.11.2.16 .15.2.36.37.36.45zm-.85 1.21c-.01.09-.02.19-.04.27h-.12v.22h.11c-.03.32-.03.67-.04.67-.02 0-.25.22-.37.22-.11 0-.12-.49-.3-.86l-.01-.05h.05v-.21h-.15c-.04-.07-.07-.16-.11-.24h.09v-.22h-.2c-.06-.1-.11-.18-.16-.27v-.18h-.15c-.04-.06-.08-.1-.14-.14l1.45.01c0 0 .01.06.04.13h-.11v.21h.15c.01.09.03.16.03.24h-.18v.22l.16-.02zm-.04 2.75c0 .07 0 .16 0 .23v.01h-.17v.16h.17c0 .08 0 .17.02.26h-.19v.15h.2c.05.29.15.54.3.79h-.06v.15h.18c.08.12.13.24.15.39 0 0-.11.27-.22.55v-.04h-.23v.16h.18c-.04.11-.08.22-.12.32h-.15v.16h.12c-.01.04-.03.08-.03.11-.01.19-.43.05-.45.23-.03.19.09.37-.06.36-.15-.02-2.54.05-2.54.05 .21-.07.4-.17.6-.28v.08h.22v-.15h-.14c.04-.03.08-.07.11-.1 .43-.41.82-.86 1.18-1.34h.11v-.16h-.01c.03-.04.04-.07.05-.11 .05-.07.07-.17.12-.29v.08h.22v-.16h-.2c.04-.11.07-.23.11-.36h.14v-.15h-.11c.14-.57.24-1.16.25-1.74 0-.07.18.11.24.47h-.16v.16h.17v.01zm-.89 4.56c-.11-.13-.3-.27-.21-.3 .16-.05.14-.05.31.05 .17.1.4.26.36.42-.04.15 0 .24-.18.23-.18-.02-.4 0-.3-.1 .09-.1.13-.18.02-.3zm-.75-.03c-.07-.09-.25-.23-.15-.26 .13-.03.26-.03.39 0 .14.06.25.19.3.33 0 .04-.04.33-.19.34-.19.02-.43.02-.37-.11 .05-.13.09-.2.02-.3zm.21.74c.03-.09.18-.06.29-.06 .11 0 .07.1.09.14 .01.13-.11.13-.23.13-.16 0-.18-.15-.15-.21zm1 0c.03-.06.17-.03.28-.03 .11 0 .08.07.1.11 .02.12-.13.12-.24.12-.08 0-.14-.06-.14-.14-.01-.02 0-.03 0-.06zm.24-.44c.02-.07.02-.16 0-.23-.07-.13-.24-.33-.14-.33 .1-.01.18.03.23.1 .09.09.28.36.25.5-.01.07-.05.11-.19.11-.07-.01-.19 0-.15-.15zm-2.78-.32c-.1-.1-.32-.27-.23-.28 .08-.02.18-.1.23-.07 .08.04.53.41.53.54 0 .13-.03.26-.21.26-.18 0-.32-.08-.32-.15-.01-.13.08-.22 0-.3zm-.67.12c-.04-.07-.27-.29-.19-.3 .1-.02.19-.04.28-.09 .05-.03.32.3.36.36 .04.06.07.26-.03.3-.1.04-.51.08-.43-.02 .07-.07.07-.18.01-.25zm-3.67.2c.04.04-.34.13-.42.1-.08-.03-.25-.36-.15-.43 .09-.07.47-.37.57-.37 .07 0 .16.06.3.06 .09 0-.34.11-.39.24-.02.14 0 .28.09.4zm-.78.07c-.14.04-.28.04-.42 0-.19-.07-.32-.39-.23-.44 .15-.1 1.04-.53 1.09-.49 .06.05.13.07.2.1 .08.05-.61.29-.71.46-.1.17.11.31.07.37zm-.87-.23c.08.07.05.17-.14.2-.27.03-.5-.47-.36-.57 .29-.17.59-.3.91-.36 0 0 .22.15.18.16-.04.02-.5.27-.57.33-.07.06-.09.17-.04.24 0-.01.02 0 .02 0zm-.73.1c-.11.09-.26.09-.39.01-.16-.12-.23-.44-.16-.49 .07-.06.39-.26.57-.26 .15 0 .26.07.26.1 0 .03-.33.16-.42.27-.08.11.24.3.14.37zm-5.42-1.51c-.03-.04-.04-.07-.07-.11h.15v-.19h-.22v.1c-.03-.03-.06-.04-.1-.04-.12-.02 0-.49.01-.57l-.01-.01c.01-.02.01 0 .01.01 .09.03.81-.16 1.07-.61 .1-.19.56.03.88.23h-.07v.18h.22v-.07c.29.23 1.33-.07 1.57.26 .01.02.04.04.05.05h-.05v.19h.21v-.07c.32.14.8.18.87.58 .11.51-.19.57-.29.58-.1.02-3.47.05-3.54 0-.07-.04-.4.02-.55-.25l-.05-.07h.09v-.19h-.18zm4.55.57c.04-.08.24-.27.28-.36 .04-.08-.02-.39-.07-.48-.06-.08-.27-.44-.38-.47-.11-.03-.26-.13-.34-.16-.2-.05.01-.1.01-.1 .08 0 .15.03.22.06 .18.07.36.17.52.29 .08.12.34.41.4.57 .08.22-.1.34-.13.49-.01.15-.05.2-.18.22-.12.01-.37.04-.33-.06zm.94-1.79c-.09-.1-.23-.15-.37-.15-.13 0-.24-.11-.33-.27h.05v-.18h-.15c-.2-.43-.28-1-.14-1.01 0 0 .82-.13.97-.06 .04.02.06.09.07.19h-.21v.18h.22v-.06c.02.4.14.8.35 1.14l.08.13h-.18v.19h.23v-.1c.4.64.9 1.49 1.02 1.59 .13.1 0 .14 0 .14 0 0-.7.06-.77 0-.07-.05 0-.14-.09-.35h.2v-.19h-.23v.1c-.01-.03-.02-.05-.04-.1-.18-.35-.43-.67-.47-.78-.01-.07-.05-.16-.08-.23h.1v-.18h-.23zm2.49 2.53c.03-.08.36-.36.36-.36 .08.05.15.08.23.1 0 0-.27.16-.12.4 .15.25-.18.22-.31.23-.12.02-.19-.27-.16-.37zm.4.77c.04-.07.04-.2.21-.2 .16 0 .4-.04.4.06-.01.17-.15.28-.32.28-.17 0-.42.06-.29-.14zm.37-.34c-.11-.03-.22-.33-.2-.41 .01-.09.05-.16.11-.23 .15.04.3.07.46.08 .13 0-.09.13-.07.19 .01.05.07.21.11.31 .04.1-.31.09-.41.06zm.49.17c.21-.03.42-.03.62 0 0 .01-.09.34-.24.34-.14 0-.56.03-.56-.04 0-.12.07-.23.18-.3zm.75-.23c.03.1-.51.07-.6 0-.08-.07-.25-.48-.14-.47 .23.04.43.07.66.09 .11 0 .07.27.08.38zm-.03.2c.03 0 .57 0 .58.01 .02.02-.08.35-.15.36-.07.01-.58.01-.58-.01 0-.03.07-.33.15-.36zm.27-.23c-.06-.07-.06-.38-.02-.38 .13-.03.39-.04.45-.07 .04-.02.18.41.05.48-.12.07-.41.07-.48-.03zm-.05-.77c-2.31.03-4.2-1.86-4.24-4.24-.03-2.38 1.82-4.31 4.13-4.36 2.32-.02 4.21 1.87 4.25 4.25 .03 2.37-1.82 4.31-4.14 4.35zm-5.16-7.09v.16h.18c-.21.16-.41.31-.43.41h-.14v.16h.14c-.01.2-.1.37-.23.5-.02.01-.02.03-.03.04h-.21v.16h.14c-.02.11.01.24.07.34h-.14v.16h.21c.01.02.02.07.04.1 .05.21.1.52-.2.54-.18 0-.65-.19-1.11-.29v-.13h-.22v.1l-.1-.01v-.07h-.22v.08c-.05 0-.09.02-.15.03-.01 0-.04.02-.06.02v-.13h-.22v.05c-.19-.21-.18-.79-.39-1.05-.22-.27-.36-.91-.43-1.34h.18v-.15h-.2c0-.03-.02-.07-.02-.1-.03-.2 3.8-.39 4.04-.23 .24.16.13.38-.01.54-.1.09-.2.17-.29.24v-.13h-.2zm-3.59-1.39c.16-.19.41-.27.65-.24 .12.01.08.12-.08.17-.16.03-.27.17-.27.32 .02.13.08.29-.08.29h-.25c-.13.01-.13-.36.03-.54zm-.13-.14c-.11.15-.18.35-.19.55-.02.14-.21.13-.31.14-.11.02-.07-.25-.01-.42 .05-.17.12-.29.25-.32 .12-.03.34-.04.26.05zm1.03.04c.12-.16.19-.19.44-.21 .18-.02.13.12.02.24-.17.13-.27.34-.27.55 0 .07-.43.12-.43-.04 .02-.2.1-.38.24-.54zm2.68-4.1c0-.29.05-.56.15-.83 .06-.17.07-.34.15-.57 .07-.17-.12-1.66.16-1.56 .19.07.05.84.05.92-.03.22-.03.44 0 .66 .06.23-.08.84.26 1.35 .06.09.02.36-.05.64-.01.04-.15.19-.25.34-.08.14-.1.3-.15.34-.18.19-.42-.1-.56.08-.1.11-.23.18-.26.05-.02-.07.08-.2.19-.4 .06-.11.1-.24.14-.37 .11-.18.18-.42.17-.65zm-1.2-15.48c-.16.19-.25.44-.2.69 .04.22.02.65-.16.75-.07.04.02.43-.12.54-.11.1-.43-.08-.39-.23 .01-.07.25-.2.26-.39 .02-.2-.16-.37-.37-.65-.21-.27.16-.35.36-.34 .19.02.4.06.32-.18-.09-.24-.5-.56-.56-.93-.05-.38.29-.3.36-.32 .07-.03.03.41.17.42 .14.02.1.09.22-.13 .11-.2-.26-.1-.21-.49 .06-.4-.05-.73-.01-.89 .04-.15.19-.4.31-.4 .11 0-.05.43.07.59 .18.25.29.33.33.43 .1.14.05.34-.1.44-.15.11-.04.2-.23.37-.09.1.13.55-.05.72zm-.39 6.4c-.11.12-.27.19-.44.22-.33.03-.1-.15.06-.41 .15-.26-.16-.68.08-.77 .28-.1.35.16.49.3 .08.09-.06.29-.13.37-.07.09.01.2-.06.29zm-.77-.62c-.14.37-.39.36-.53.59-.07.12.24.25-.24.5-.15.07-.33-.02-.19-.12 .14-.1.12-.45-.12-.65-.14-.12-.2-.46 0-.49 .19-.03.3.4.48.4 .25-.01.32-.28.32-.45 0-.18-.18-.2-.31-.36-.06-.1-.09-.26-.2-.33-.28-.2-.18-.35 0-.34 .33.03.47.38.61.47 .25.2.33.53.18.78zm-.07 1.4c-.13.13-.31.11-.47.08-.17-.02.18-.04.27-.57 .05-.24.45.22.2.49zm.15-4.64c-.11-.1-.21-.23-.29-.36-.04-.14.03-.28.15-.35 .13-.06.21.18.27.38 .08.26.27.3.27.46 .02.24-.14.47-.36.54-.19.05-.61.04-.73-.12-.13-.15-.04-.25.01-.27 .17-.03.24.22.43.26 .2.04.14-.09.24-.19 .09-.08.11-.24.02-.34 0-.01 0-.01-.01-.01zm-.43 1.28c-.04-.03-.12-.17 0-.24 .08-.06.18-.07.26-.06 .18.03.21.13.39.1 .18-.03.25-.3.38-.41 .12-.12.33.12.33.42 0 .16-.05.27-.29.27-.04 0-.07-.12-.17-.1-.14.05.06.32-.12.57-.15.22-.22.4-.27.2-.02-.14.07-.35-.09-.54-.07-.1-.29-.13-.42-.21zm1.07-1.77c.08 0 .15.07.15.16 0 .01 0 .01 0 .03-.01.11 0 .24-.05.27-.14.07-.13-.1-.17-.1-.15-.02-.15-.34.07-.36zm.01 3.02c.03-.16.06-.43 0-.47-.05-.04-.22-.3-.08-.35 .07-.03.11-.03.26.15 .16.19.23.67.11.8-.11.13-.31.01-.29-.13zm-.36-8.13c-.12-.21-.84-.14-1.15-.68-.11-.21-.03-.37-.04-.61-.03-.32-.25-.36-.25-.54 0-.19.29-.39.29-.39 0 .03.01.04.04.07-.1-.11-.05-.54.11-.57 .31-.05.31.19.56.43 .23.23.33-.04.4.17 .03.07.01.16.25.27 .21.1.33.02.46.04 .15.03.33.33.26.73-.03.17-.08.26-.32.4-.23.14-.34-.16-.33-.33-.01-.18-.12-.34-.29-.41-.14-.06-.42 0-.67-.1-.22-.09-.11-.56-.29-.61 .04.02.01.25 0 .41-.03.27.24.68.4.75 .32.16.63.2.86.33 .28.14.49.5.32.83-.14.24-.41.35-.68.25-.14-.05.2-.22.07-.44zm-2.38-.2c-.45-.4-.55-.62-.55-.91 0-.18.14-.37.31-.27 .17.1.39.43.54.49 .15.05-.05.34.08.39 .1.03.07-.05.11-.07 .05-.01.05-.15.06-.25 0-.03.06.01.07-.03 .03-.09.03-.17 0-.24-.07-.15-.15 0-.43-.53-.08-.16-.32-.3-.42-.37-.09-.09-.16-.2-.18-.34-.05-.16-.33-.47-.21-.54 .2-.12.3.25.48.34 .18.08.22-.03.37.05 .15.09.03.37.26.6 .24.23.38.22.44.36 .01.03-.05.11-.02.18 .13.25.13.52 0 .76-.19.3-.61.3-.51.35 .09.06.4.05.55.37 .18.4.02.87-.26 1.02-.28.14-.72 0-.63-.09 .19-.14.3-.34.34-.57 .03-.24-.06-.38-.4-.7zm1.76-3.8c.08-.08.11.34.29.36 .18.01.36.07.43.2 .07.12.08.25.24.34 .16.1.47.25.51.47 .04.21-.2.43-.33.58-.14.16-.09-.25-.36-.43-.28-.17-.8-.18-.92-.45-.17-.36-.11-.77.14-1.07zm3.97.39c-.03-.25-.06-.49.12-.47 .14.02.2.17.1.45-.06.16-.08.31-.08.47 0 .41-.21.7-.57.68-.41-.01-.17-.14-.39-.37-.13-.11-.38-.24-.45-.42-.07-.19-.08-.4-.02-.6 .05-.21.32-.01.58-.16 .26-.14.19-.31.33-.31 .14 0 .21.36.22.54 .02.13.02.26 0 .39 0 .01.19-.06.16-.2zm1.19 1.88c.07.08.01.37-.07.48-.15.18-.53.16-.57.4-.04.24-.01.24-.09.38-.07.07-.16.12-.25.12-.16-.03-.24-.1-.31-.32-.07-.21-.1-.62-.29-.77-.28-.24-.51-.54-.68-.88-.04-.13.04-.14.07-.13 .22.15.43.32.62.5 .17.16.17-.64.53-.51 .22.08.12.48.19.77 .16.64.12-.2.3-.24 .23-.06.18.32.15.48-.03.16.32-.38.4-.28zm.78-2.5c-.27-.01-.5-.1-.72-.22-.09-.05-.05-.19.18-.15 .23.07.47.1.7.12 .38 0 .74-.1 1.06-.29 .24-.1.33-.15.36-.32 .03-.18-.08-.16-.29.05-.22.22-1.07.33-1.39.26-.36-.07-.46-.23-.65-.5-.1-.14-.1-.31.05-.31 .16 0 .27.42.48.52 .32.15.68.17 1.01.1 .22-.05.44-.15.47-.28 .02-.09-.03-.17-.1-.21-.38-.2-.43-.05-.69-.22-.26-.17-.14-.34-.29-.77-.07-.14-.03-.31.11-.38 .01-.02.03-.02.04-.02 .1 0 .18-.01.2.26 .01.3-.09.48.07.71 .15.23.31.03.66.24 .2.1.4.18.61.2 .2-.02.25-.21.49-.24 .21-.01.16.13.4.2 .22.07.47 0 .64-.17 .17-.16.23-.11.29-.28 .06-.18-.03-.2 0-.45 .03-.24.53.06.29.7-.1.26-.29.46-.54.54-.28.12-.79 0-1.14-.23-.34-.22-.08.18.27.29 .69.24.84.14 1.04.04 .34-.17.36-.44.61-.52 .21-.08.19.19.04.47-.15.28-.46.45-.78.44-.28.03-.55-.02-.82-.12-.4-.14-.46-.25-.73-.45-.18-.13-.09.1 0 .2 .25.3.58.48.96.52 .3.03.65.13 1.15-.05 .47-.17.34-.5.68-.73 .12-.09.22.1.27.2 .07.14.09.3.02.44-.08.11-.2.03-.15-.1 .05-.2-.18-.2-.24-.06-.18.46-.74.92-1.54.82-.65-.09-.89-.27-1.15-.57-.14-.16-.14-.42-.29-.42-.1 0-.03.09-.18.3-.13.2-.35.34-.6.56-.21.17-.39.08-.83.32-.21.12-.57.1-.55-.11 .03-.21.38-.13.56-.23 .18-.1.11-.1-.04-.1zm-.11-1.88c.19.16 0 .25.27.52 .2.17.42.27.67.3-.19.08-.42.11-.64.07-.3-.05-.59-.36-.68-.56-.08-.2.2-.47.38-.33zm3.15-.57c.09-.11.36-.08.36.23 0 .32.01.59-.33.76-.43.23-.53-.16-.53-.16 .15-.03.3-.1.43-.2 .18-.14-.07-.47.07-.63zm2.12 5.6c.31-.26.14-1.01.02-1.18-.17-.22.22.01.38 0 .1-.02 0-.19-.26-.3-.1-.04-.11-.16.01-.23 .13-.07.32.06.64.37 .2.2.09.67-.05.94-.14.27-.13.46-.39.47-.21.02-.29.3-.4.47-.09.2-.28.3-.49.27-.15-.03-.14-.14-.1-.18 .04-.05.14 0 .17-.03 .07-.06.04-.23-.01-.36-.1-.17-.2-.33-.31-.48-.1-.12-.11-.27-.04-.4 .14-.1.29.41.41.36 .06-.03-.24-.56-.08-.69 .04-.03.15.44.18.41 .14-.08 0-.72.11-.64 .11.09.2.37.23.64 .01.33-.05.59-.02.56zm1.86 7.03c-.07-.38-.21 0-.3-.44-.1-.44-.35-.14-.1-.44 .08-.1.36-.04.47.23 .11.27.29.91.01 1.35-.27.44-.01-.31-.08-.7zm-.69.3c.15-.04.3.03.39.17 .18.33.16.63.01.69-.15.05-.21-.07-.19-.33 .01-.19-.07-.39-.21-.53zm.47-1.56c-.17 0-.11-.15-.15-.25-.05-.1-.21-.15-.24-.25-.03-.1 0-.22.08-.27 .11-.1.28-.12.42-.05 .17.09.26.28.24.46 0 .14-.17.37-.35.36zm-.31-1.21c-.4-.05-.05-.02 0-.23 .06-.22-.07-.12-.19-.29-.13-.17-.15-.51.18-.52 .22-.02.4.18.49.49 .04.15-.07.6-.48.55zm-1.77 12.64c.11.68.29 1.35.54 1.99 .1.26.05.78.12 1.03 .07.27-.15.2-.16.4-.02.27-.07.61.08.74 .12.1.51.18.61.49 .03.13 0 .27-.07.39-.04.13-.04.27 0 .4 .07.13.1-.05.18-.17 .09-.13.32.02.39.15 .07.19.1.37.1.57-.02.16-.1.14-.16.12-.05-.03.09-.43-.04-.56-.07-.07-.18-.1-.27-.06-.16.09.19.53.02.57-.05.02-.16.07-.23-.01-.04-.06-.02-.33-.07-.36-.06-.03-.17-.07-.2.16-.02.26-.07.07-.05-.17 0-.3.14-.44-.02-.61-.11-.1-.19-.23-.25-.37-.06-.19.07-.35-.26-.4-.11-.02-.47-.1-.43-.3 .07-.14.03-.33-.1-.43-.11-.11.13-.45-.01-.68-.26-.44-.42-.94-.43-1.45 .01-.84-.08-1.91-.08-1.91-.06.03-.13.65-.25 1.37-.18.99-.43 2.02-.36 2.24 .04.13.04.28.04.42-.06.18-.13.38-.23.55-.06.2-.12.63-.05.76 .05.08-.24.14-.25-.16 0-.26.06-.5.15-.73 .06-.11.21-.25.24-.37 .04-.17-.13-.47-.15-.52-.1-.16-.03-.5 0-.69 .15-.69.51-3.1.56-3.3 .06-.2.07-2.9.06-3.24-.01-.35-.32-.99-.08-1.02 .55-.07.54-.12.65-.21 .14-.11.5-.64.67-.65 .29 0 .49.1.48.22-.07.52.4.93.14 2.01-.21.83-.13 1.05-.43 2.01-.29.94-.49 1.31-.4 1.78zm.83 3.69c.08-.08.12.14.18.21 .1.11.25.26.19.28-.11.02-.2-.01-.29-.08-.11-.07-.15-.36-.08-.41zm-.13 3.1c-.04-.07-.43-.4-.34-.4 .21 0 .36-.06.59.17 .13.14.23.31.28.5 .03.11-.05.11-.22.11-.17 0-.32.05-.29-.1 .03-.1.01-.2-.02-.28zm-.77-.1c-.18-.14-.39-.34-.29-.36 .11-.01.23 0 .33.05 .14.08.26.21.36.35 .06.1.24.44.11.44-.23 0-.42.02-.46-.11-.04-.13.03-.31-.05-.37zm-1.04-.83c.07.2-.09.35-.21.26-.08-.06-.13-.78.05-.95 .16-.15.06-.35-.07-.35-.08 0-.08-.44.1-.44 .14 0 .31.62.34.37 .01-.17-.12-.49-.17-.72-.06-.26-.07-.59 0-.59 .08.02.11-.42.03-.45-.11-.04-.07-.88-.03-.93 .04-.04.08-.62.18-.64 .1-.01.17.69.12.84-.02.1.06.16.11.33 .03.1-.05.38.05.51 .16.24-.02.46 0 .79 .01.32-.21.24-.06.68 .03.13.06.25.11.37 .06.1.15-.04.18-.17 .04-.16.11-.3.2-.44 .04-.06.19.01.25.07 .09.08.11.24.04.35-.06.1-.15.16-.22.29-.07.13.25.01.44.04 .14.02.25.11.29.26 .03.1.04.2.03.3-.01.15-.07.31-.14.44-.05.05-.15.05-.21 0-.01-.02-.03-.03-.03-.05-.04-.12.19-.29.19-.49 .01-.09-.05-.17-.12-.23-.12-.06-.27-.03-.37.06-.08.07-.1.2-.03.29 .08.08.14.16.18.26 .04.2-.11.21-.3.17-.06-.01-.14-.3-.13-.58 .02-.29-.18-.19-.3-.43-.06-.13-.2-.03-.07.1 .09.13.15.3.14.47 .01.14-.09.29-.23.31-.05.02-.02-.21-.05-.41-.03-.2-.21-.28-.29-.2-.14.19 0 .46 0 .51zm1.36-.02c-.03.01-.1-.06-.13-.16-.03-.1-.03-.23.06-.23 .07.02.11.07.11.14 0 .06 0 .22-.04.25zm-1.28-.36c.03 0 .1.14.07.28-.03.15-.03.18-.07 0-.04-.17-.08-.28 0-.28zm.15.92c.14-.01.27.03.38.12 .32.26.22.43.14.34-.16-.18-.36-.3-.59-.33-.07 0-.05-.14.07-.13zm2.11-.01c.13-.01.27 0 .39.06 .14.05.45.51.45.57 .02.17-.28.13-.38.11-.24-.01-.04-.35-.35-.6-.07-.04-.22-.13-.11-.14zm.21-.6c.01-.08.01-.14.06-.15 .04-.02.09.14.05.2-.04.05-.12.04-.11-.05zm-3.55-.72c.21.24.12.85-.07.95-.2.1-1.32.04-1.7.03-.2 0 .02-.33-.09-.51-.06-.09-.27-.36-.2-.44 .16-.2.14-.49-.02-.69-.12-.11-.05-.82-.02-.92 .03-.13.04-.63-.07-.82-.11-.18-.09-1.72.31-2.49 .19-.35-.28-3.31.01-3.68 .07-.09-.03-.33.11-.36 .13-.03.25.2.38.09 .12-.12.3-.16.47-.12 .15.03.25.2.33.22 .06.01.22-.19.29-.09 .06.1.09 2.75.06 2.86-.03.12.3 1.92.49 2.32 .13.3.01.74.01.74-.03.13-.04.27-.04.42 0 .14.01.54-.1.76-.08.17-.21.57-.36.87-.07.16 0 .61.21.86zm-2.45.41c-.04-.09-.31-.27-.43.03-.04.11-.04.24 0 .35 .03.08.2.17.23.32 .01.07-.27.03-.32-.1-.03-.09-.04-.17-.04-.26-.06-.18-.05-.37.02-.55 .06-.12.17-.17.29-.16 .13.01.25.07.32.18 .07.12.09.26.06.4-.01.07.06.2.06.29 0 .11-.13.11-.14.11-.02 0-.14-.01-.1-.14 .01-.06.04-.16.07-.23 0-.08 0-.17-.02-.24zm-.15.26c-.03.05-.08.07-.14.04-.01-.02-.04-.03-.04-.04-.03-.08-.08-.22.08-.23 .07 0 .13.14.1.23zm-1.46.48c.16-.01.5-.06.42 0-.14.09-.26.2-.36.33-.06.07 0 .27-.06.32-.12.06-.26.06-.38.03-.17-.04.27-.68.38-.68zm-.09-.74c.14.03.15.17.14.27-.02.1-.03.2-.09.2-.05 0-.11-.1-.11-.2 0-.1 0-.28.06-.27zm.89.7c.08 0 .33.1.12.24-.17.11-.3.28-.4.47-.03.06-.21.07-.21-.13 0-.3.4-.58.49-.58zm.09-1c-.07 0 0 .06 0 .16 0 .1-.02.69-.11.72-.14.05-.1-.2-.04-.35 .08-.22-.08-.37-.12-.49-.05-.11-.03-.35-.1-.52-.07-.17-.14-.29-.18-.3-.04-.02-.11.31-.24.41-.12.1-.19.14-.21.2-.01.06-.02.13.06.14 .11 0 .22.03.32.09 .11.1.16.25.15.4-.01.17-.1.31-.23.41-.13.04.01-.44.01-.5 0-.06-.08-.17-.18-.23-.1-.03-.21-.01-.31.05-.07.02-.12.15-.08.22 .08.12.11.27.08.42-.05.14-.33.2-.33-.26 0-.2.08-.41.18-.44 .1-.03 0-.5.1-.84 .04-.14.08-.49.36-.49 .08 0 .21.13.3.13 .1 0-.04-.41.05-.42 .08-.02.16-.33.26-.36 .1-.03.12.16.15.23 .04.24.04.48.02.71-.03.06-.03.14.07.14 .09 0 .29-.11.16.12-.05.1-.11.14-.11.21 0 .07.04.18.11.14 .07-.04.14-.23.2-.25 .12-.06.25-.03.25.11 0 .14-.02.2-.13.21-.11.02-.28-.01-.3.06-.03.07-.07.18-.16.17zm-1.52-.45c0 .12-.03.25-.06.38-.03.13-.03.3-.05.43-.06.18-.14.27-.1.38 .1.29-.38.24-.42.1-.03-.11.07-.34.21-.34 .04 0 .15-.1.07-.39-.03-.1.1-.25.12-.37 .03-.11-.02-.19-.11-.19-.15 0-.43.05-.39-.1 .05-.16.05-.37.09-.49 .04-.07.11-.13.23-.04 .13.08.3.01.41-.16 .15-.25.37-1.66.23-1.55-.08.07-.07.61-.14.87-.04.11-.09.23-.16.31-.23.27-.41.29-.47.23-.13-.1.05-.64.12-.64 .24 0 .15.33.21.33 .11 0 .12-.46.07-.66-.02-.11-.03-.23-.04-.34-.02-.46.07-1.52.04-1.58-.04-.09.05-2.12-.04-2.24-.1-.11-.38-1.97-.35-2.29 .03-.23-.08-.44-.14-.72-.11-.5-.04-1.06.24-1.27 .08-.07.8-.13 1.11.18 .19.2.63.59.68.8 .04.21.14.86 0 1.31-.07.14-.1.29-.13.44-.01.44-.07 1.16.03 1.8 .03.14.04.28.04.41 .01.23.26 1.04.38 1.18 .25.3.23.78.18.84-.11.09-.14-.37-.24-.44-.1-.07-.17-.06-.15.03 .01.14.22.38.23.87 .03.21.07.42.13.62 .08.32-.02.86-.2.87-.05 0-.18-.45-.2-.65-.02-.1-.06-.2-.1-.3-.03-.1-.08-.23-.13-.23-.11-.01.2.9.03 1.05-.07.06-.26.29-.29.2-.07-.13-.12-1.11-.22-1.26-.13-.2.05 1.12-.11 1.39-.13.24-.67.98-.61 1.23zm-.92 2.19c.06.2-.06.21-.31.21-.2 0-.29-.03-.27-.2 .04-.15.11-.31.21-.44 .08-.16.23-.24.4-.26 .14-.01.37-.07.37.03 0 .07-.11.13-.21.24-.09.12-.2.3-.19.42zm-.06-1.65c-.08.11-.13.37-.02.51 .08.1.14.23.08.3-.08.11-.29.04-.39-.06-.07-.08-.05-.63.11-.83 .09-.09.21-.14.34-.14 .11.03.2.1.27.19 .27.25.1.45.07.47-.04.01.06-.22-.21-.44-.02-.05-.18-.09-.25 0zm.19.54c-.06.01-.16-.09-.13-.17 .03-.09 0-.19.06-.17 .05 0 .11.04.12.1 .04.09 0 .22-.05.24zm-.2-1.36c-.1.22-.47.63-.46.74 .02.05-.01.18-.01.3 .01.37-.13.62-.17.59-.08-.05.1-.3.03-.57-.06-.22-.39-.2-.44-.14-.16.12.01.76-.1.72-.08-.03-.22-.37-.15-.58 .07-.24.29-.39.58-.43 .25-.03.26-.17.28-.35 .01-.19.09-.62.39-.69 .18-.07.15.22.05.41zm-.78 1.24c-.02.12-.07.23-.14.16-.06-.07-.04-.36.06-.37 .17-.04.11.11.08.21zm0 .57c.21-.01.28.05.27.12-.02.07-.25.2-.31.31-.05.11 0 .28-.08.36-.06.04-.21.02-.46.04-.19.01-.1-.23-.01-.43 .11-.33.4-.37.59-.4zm.96-15.02c.1-.05.29.33.18.44-.11.12.07.08-.12.36-.2.28-.42.18-.5-.07-.04-.16.32-.66.44-.73zm-.53-.2c-.16.09-.19-.31-.12-.5 .08-.22.25-.41.46-.51 .08-.04.39.02.29.2-.1.19-.45.73-.63.81zm5.25-10.06c.1.08.22.08.32.01 .15-.07.12-.13.36-.38 .18-.2.35-.16.32-.02-.04.19-.29.63-.61.64-.1 0-.32-.01-.35.08-.03.08-.3.17-.54-.05-.24-.21-.51-.57-.46-.81 .04-.18.34-.36.57-.37 .17-.01.18-.2.24-.16 .25.25.41.32.71.3 .3-.01.05.54-.32.57-.34.02-.31.13-.24.19zm-.97.13c.08.08.18.28.71.42 .16.05.66.07.93-.13 .3-.24.66-1.08.9-1.13 .19-.05.25 1.21.22 1.41-.03.19-.46.59-.75.64-.18.02-.51.01-.42-.1 .06-.07.28-.12.31-.25 .01-.05-.15.02-.29-.01-.17-.03-.35-.1-.31-.01 .04.08.14.22.06.28-.08.06-.68.13-.76-.01-.07-.1.15-.32.08-.39-.07-.07-.13.12-.31.19-.27.1-.52-.02-.45.08 .06.1.2.09.31.1 .12.02.2.09-.05.12-.25.02-.64.05-.82-.15-.21-.2-.31-.49-.26-.79 .07-.33.09-1.04.22-1.04 .23-.02.5.55.68.77zm3.55-1.11c.04-.13.17-.15.21-.22 .08-.13.03-.33.12-.41 .05-.04.14-.1.2.06 .04.14-.04.35.07.52 .11.17.04.3 0 .47-.06.2-.27.24-.5.3-.15.03-.32.16-.43.46-.11.3-.29.04-.28-.06 0-.13-.1-.38-.01-.46 .21-.08.4-.22.55-.39 .13-.16.03-.12.07-.27zm-.44 3.47c.11-.17.03-.76.09-.76 .07 0 .21.19.27.42 .12.51-.24.03-.14.25 .19.45.07.72-.03.82-.19.19-.53.39-.84.37-.21-.03-.17-.09-.07-.18 .09-.14.13-.32.09-.49-.02-.19-.19-.4-.18-.52 .04-.18.38.33.47.32 .1-.02-.12-.52 0-.56 .13-.04.27.44.34.33zm.68 1.48c-.09-.16-.07-.4.19-.4 .34 0 .38.3.32.46-.05.21-.25.35-.46.32-.32-.02.09-.1-.05-.38zm.69 2.31c-.08-.16 0-.46.38-.42 .16.02.32.12.39.27 .08.3-.03.53-.06.66-.03.13-.25.57-.21.1 .03-.5-.28-.19-.5-.61zm-1.51 3.91c-.11-.1-.11-.82-.01-.91 .18-.17.41.78.72 1.03 .3.24.37.39.3.55-.12.29-.34.41-.25 0 .09-.33-.66-.58-.76-.67zm-.03 2.99c.02-.08.21 0 .25.04 .07.05.1.15.04.23-.01.03-.05.06-.08.06-.13.04-.22-.2-.21-.33zm-.08-.77c.05-.13.21 0 .22.07 .01.07.11.29.04.27-.07-.01-.36-.12-.26-.34zm.14-.45c-.1-.19-.06-.74-.02-.84 .06-.13-.18-.22-.23-.36-.06-.14.15-.14.34-.03 .14.09.23.22.24.37 .01.2-.03.36.03.39 .09.05.4.58.33.81-.07.23-.17.35-.32.18-.14-.15-.26-.34-.37-.52zm-1.92.99c.02-.37-.14-.68-.1-.72 .05-.05.3.11.39.17 .11.08.31.18.38.38 .09.29-.22.2-.22.29 0 .04.12.08.26.17 .07.04.05.24-.13.28-.32.06-.59-.45-.58-.57zm.35 1.6c-.09.08-.21.11-.24.07-.03-.04.07-.53.2-.46 .05.03.39.06.04.39zm-.53-4.87c-.24-.14-.19-.41-.12-.34 .27.24.97.62 1.09.78 .09.16.09.36 0 .51-.29.23-.83-.42-.91-.54-.09-.11.05-.34-.06-.41zm-.07.92c.06-.02.08.02.1.09 0 0 .83.57.96.67 .12.1.05.64-.06.68-.11.04-.54-.25-.53-.41 .02-.16.11-.16.11-.27 0-.12-.47-.31-.41-.44 .05-.13-.06-.06-.06-.06 0 .09-.01.17-.04.24-.04.07-.1.07-.33.12-.27.05-.43.55-.46.78-.03.23.11.48-.11.4-.15-.06-.45-.41-.42-.59 .03-.17.34-.17.45-.37 .11-.2-.05-.54.19-.55 .32-.02.53-.21.61-.29zm1.53 1.56c.15.11.23.31.21.49-.03.2-.05.22-.41.43-.07.04-.25.06-.18-.13 .07-.18.03-.55-.02-.77-.06-.24.33-.08.4-.02zm.18-1.17c.14.14.08.48 0 .51-.14.04-.22-.16-.22-.26 0-.09-.14-.19-.16-.27-.02-.19.25-.11.38.02zm-.49 2.46c.07.03.13.2.09.31-.1.29-.34.26-.36.2-.03-.05.11-.02.09-.2-.01-.31.1-.34.18-.31zm-1.45-3.51c-.05.27-.63.71-.74.76-.11.06-.07.35-.17.43-.09.09-.26 0-.32-.33-.05-.31.14-.61.43-.68 .24-.07.25-.18.25-.34 .03-.17.14-.3.31-.34 .14 0 .28.21.24.5zm-.23 2.59c.11-.12.32-.62.35-.54 .13.39-.08.42-.14.69-.05.27-.57.47-.58.69-.02.21 0 .34-.08.39-.09.06-.37.09-.37-.47 0-.65.66-.62.82-.76zm.11 1.32c.18-.07.05-.27.13-.4 .05-.07.15-.1.24-.07 .12.06.18.14.12.34-.08.29-.15.57-.39.61-.14.05-.21-.42-.1-.48zm1.14.8c.03-.3.7-.49.77-.42 .12.12.07.63.07.77 .02.62.23.63.25.76 .01.25-.23 2.66-.38 2.85-.19.22-.17-.19-.32-.72-.17-.65-.26-1.31-.28-1.98-.01-.56-.15-.96-.11-1.26zm.93-4.57c-.08.1-.19.15-.3.17-.21.04-.03-.2-.02-.33 .02-.13-.29-.47-.62-.61-.17-.07-.29.06-.61-.29-.13-.14-.1-.42-.31-.55-.16-.1.07-.23-.3-.5-.02.06-.02.13 0 .19 .05.39-.16.44-.29.57-.14.12-.39.31-.36.72 .01.26-.2.37-.44.11-.23-.25.05-.81.06-.96 .03-.26.11-.23.32-.33 .15-.07.26-.33.18-.44-.03-.04-.11-.12-.06-.2 .06-.09.5-.23.64-.12 .11-.08.29-.19.32-.11 .03.09.03.31.06.5 .05.2.18.38.36.5 .16.11.4.08.64.3 .11.11.04.32.14.42 .22.23.38.25.59.32 .21.07.13.5 0 .64zm-3.99 3.13c.01.17.27.28 0 .28-.32 0-.45-.22-.48-.57-.01-.15.31-.47.41-.59 .05-.07-.03-.13.04-.23 .14-.14.29-.26.47-.36 .14 0 .15.62-.01.7-.27.16-.43.44-.43.77zm-1.43-.47c-.16 0-.35-.37-.27-.71 .07-.26.21-.17.31-.26 .09-.08.03-.18.08-.23 .04-.05.13-.07.18-.02 .03.02.06.05.06.1-.07.27-.28.34-.34.79-.04.16.23.33-.02.33zm-.09-2.42c-.19-.06-.37.04-.36-.16-.03-.3.02-.61.11-.89 .14-.36.29-.35.29-.35 0 0 .34 0 .17.57-.05.22-.39.39-.33.57 .05.19.36-.03.43.17 .05.26.03.53-.09.77-.18.3-.45.49-.47.26-.01-.23-.18-.36 0-.47 .18-.11.5-.4.25-.47zm-.16-1.81c.11.13-.42.23-.43-.45 0-.17.16-.53.31-.57 .28-.07.37-.43.45-.42 .11.03.28.32.22.43-.25.56-.51.5-.55.63-.06.13-.06.27 0 .38zm.04-2.23c-.07.05-.24.08-.18.44 .01.13-.53-.09-.22-.74 .3-.66.76-.77.76-.77 .18-.03.32.28.37.45 .06.17-.57.46-.73.62zm.82 2.29c.15-.12-.05-.41.29-.57 .25-.11.33-.34.47-.47 .1-.1.36.51.31.73-.07.31-.46.41-.64.61-.11.13-.02.28.02.44 .05.16-.18.25-.36.03-.19-.26-.33-.59-.09-.77zm.18 1.62c.51-.51.57-.98.7-.88 .2.13.24.54.21.81-.02.27-.83.56-.87.64-.04.09-.24-.37-.04-.57zm-.06 1.52c.07-.25.38-.29.5-.55 .13-.26-.11-.43.15-.46 .14-.01.17-.08.23-.08 .11-.03.19.16.11.27-.09.11.01.3-.04.4-.07.14-.56.23-.56.4 0 .17-.17.21-.1.42 .06.19.1.39-.01.32-.11-.07-.33-.43-.28-.72zm1.19-4.02c-.15-.35-.12-.6-.01-.77 .14-.2.26-.12.54-.33 .2-.16.14-.38.22-.54 .06-.12.17-.22.3-.27 .27-.09.51.01.54.38 .01.19-.06.39-.21.5-.1.09-.18.1-.33.14-.16.05-.53.49-.57.64-.04.16.19.42.12.47-.12.12-.47.09-.6-.22zm2.06-5.3c.18-.01.43.04.51.17 .09.13.21.3.21.3 0 0 .04-.5.15-.5 .16 0 .29.54.29.76 0 .21 0 .35-.24.45-.25.1-.57.24-.96 0-.18-.11.14-.2.29-.51 .15-.31-.57-.64-.25-.67zm1.33 3.42c-.04-.32-.43-.3-.64-.44-.27-.18-.46-.46-.51-.77-.03-.23-.5-.4.19-.42 .43 0 .45.23.53.35 .08.11.28.52.51.68 .31.18.42.6.27.92-.1.23-.33.3-.47.19-.17-.14.18-.1.12-.51zm-1.53-2.67c-.04 0-.08-.05-.08-.14 0-.08.04-.14.08-.14 .05 0 .09.06.09.14 0 .09-.03.13-.09.14zm0 2.41c.1-.06-.02-.38.13-.38 .15 0 .64.49.79.64 .18.17.21.67.53.75 .46.13.46.36.43.49-.03.12-.27.49-.46.56-.19.08-.29-.02-.33-.14-.04-.11.07-.25 0-.45-.1-.26-.88-.64-1.11-.72-.2-.07-.35-.51-.29-.61 .08-.08.22-.08.31-.14zm1.14 3.42c-.21-.12.09-.27.1-.44 .01-.18-.1-.47-.33-.49-.24-.01-.42-.01-.63-.15-.18-.12-.3-.32-.33-.55-.04-.2.08-.39.28-.44 .08-.03.02.22.3.27 .18.02.35.13.45.29 .19.21.19.45.48.52 .38.09.57.47.36.69-.21.21-.5.4-.68.3zm1.86 3.21c.02-.1.03-.15.11-.15 .14 0 .2.28.21.33 .02.08-.08.15-.19.09-.11-.04-.16-.17-.13-.27zm-.25-2.05c-.05.02-.14-.05-.04-.15 .1-.13.11-.32.03-.46-.15-.23-.35-.41-.57-.55-.12-.05-.12-.27 0-.36 .08-.06.18-.01.08-.1-.09-.08-.19-.28-.26-.45-.07-.17 0-.26 0-.26 .11-.07.28.17.3.21 .13.12.25.25.37.39 .04.11-.05.31.05.33 .18.04.11.21.43.25 .28.04.28.44.21.63-.06.14-.35.48-.6.52zm-.57-3.61c.27.18.24.35.5.8 .27.44.56.31.63.49 .05.15.05.29 0 .43-.07.26-.32.39-.42.36-.1-.03-.1-.32-.12-.52-.03-.19-.48-.24-.56-.34-.08-.1-.19-1.35-.03-1.22zm.66.8c-.1-.03.12-.23.12-.4 0-.13-.39-.42-.67-.54-.18-.09-.11-.26-.05-.35 .05-.08-.07-.52.1-.49 .16.02.41.27.47.37 .05.1.28.2.48.45 .21.26.34.34.24.64-.12.36-.51.36-.69.32zm.87-1.67c-.29.06-.17-.16-.1-.21 .13-.1.14-.29.04-.4-.02-.03-.04-.06-.08-.07-.23-.15-.36-.3-.19-.43 .11-.09.34-.1.65.27 .4.43-.01.78-.32.84zm-.42-.26c0 .13-.26.44-.47.37-.12-.04-.01-.14-.08-.39-.07-.26-.35-.23-.5-.3-.15-.08-.49-.23-.61-.6-.13-.37.23-.32.23-.32 .34 0 .34.19.37.22 .11.18.29.33.48.41 .38.17.58.44.58.61zm-4.42-3c.05-.01.05.33.11.4 .03.04.15-.3.22-.33 .12-.04.06.26.08.36 .03.07.41-.44.52-.43 .07.01-.23.43-.25.54-.03.11 0 .23.07.31 .19.13.3.05.3.17 0 .18-.08.05-.25.15-.11.07-.16.17-.3.15-.16-.01-.3-.07-.42-.15-.11-.09-.29-.13-.31-.56 .02-.28.07-.58.23-.61zm-.16 2.09c.12-.13.25-.23.42-.27 .15-.03.32-.03.47.02 .18.04.14.69-.19.98-.34.28-.67.25-.83.5-.1.17-.1.4.02.55 .09.1-.48 0-.55-.35-.04-.25.11-.43.26-.62 .06-.05.03-.17.07-.28 .08-.17.2-.36.33-.53zm-1.08.67c-.21.22-.15.34-.19.43-.06.11-.36.13-.42-.14-.05-.27.28-1.14.81-1.41 .12-.07.55-.07.58.11 .07.4-.57.78-.79 1l.01.01zm-.37.81c.2-.07.54.09.48.34-.05.26-.41.42-.47.59-.06.17-.06.4.07.51 .12.11-.24.06-.4-.13-.16-.2-.21-.45-.17-.69 .07-.26.25-.49.49-.62zm-.35-1.9c-.18.55-.44.39-.96.68-.19.11-.16-.21-.11-.39 .07-.25.39-.38.58-.47 .2-.08.25-.34.36-.31 .06 0 .2.29.13.49zm-1.43-.12c-.01.2-.47-.33-.26-.54 .2-.21.29-.47.44-.6 .1-.08.29.1.32.39 .03.28-.49.55-.5.75zm-.26 7.93c.01-.08-.02-.45.19-.37 .06.03.11.16.14.23 .07.14-.04.2-.1.35-.04.12 0 .43-.07.46-.11.06-.29-.26-.29-.46 0-.19.11-.12.13-.21zm3.22 10.41c.02.24.16 1.32.11 1.54-.06.21-.35-1.4-.35-1.95 0-.36.03-1.16.18-1.27 0 0 0 .41 0 .67-.01.33.06.92.06 1.01zm-.32-3.01c-.17.18-.17-.68-.16-.81 .03-.58-.16-2.06-.18-2.33-.01-.32-.19-1.2-.02-1.51 .09-.2.01-.8.52-.81 .17 0 .39.41.55.45 .15.05-.14.6-.16.76-.01.1-.07.17-.08.3 .01.17.05.34.11.49 .06.3.04 2.84-.58 3.46zm5.42-6.86c-.2.04-.11 0-.11 0 .11-.08.17-.21.16-.35-.02-.17-.07-.33-.17-.46-.08-.17-.07-.33.07-.38 .26-.1.39.3.39.44 .01.23-.03.68-.34.75zm.32-1.75c0-.16-.22.09-.37-.11-.08-.12-.06-.26.05-.34 .02-.02.05-.03.07-.03 .21-.09.57.22.64.34 .07.11-.04.34-.14.4-.11.05-.25.01-.25-.26zm.25-.88c-.07-.23-.19-.43-.39-.57-.16-.14-.2-.09-.25-.19-.04-.1.18-.54.34-.54 .07.02.12.06.15.12 .03.11.03.24 0 .35-.01.09.14.09.28.22 .11.12.14.31.1.48-.02.11-.2.36-.23.13zm.06-1.4c.07-.07.15-.08.08-.22-.07-.15-.5-.22-.61-.55-.04-.12.07-.32.32-.32 .13 0 .24.05.42.24 .18.16.22.43.09.64-.13.28-.37.28-.3.21zm.44-3.21c-.27 0-.23-.15-.33-.32-.1-.17-.28-.18-.33-.41-.03-.1 0-.2.07-.27 .12-.11.26 0 .38.08 .16.1.43.3.48.45 .04.14.05.45-.27.47zm-.4-1.24c-.22 0-.19-.19-.28-.42-.08-.22-.01-.42.11-.44 .17-.01.16.27.24.42 .11.17.15.44-.07.44zm-5.95-1.64c.08.01-.03.38.01.43 .06.07.14-.2.14-.2 0 0 .15-.27.22-.29 .1-.01.08.1 0 .23-.07.11-.29.37-.28.53 .02.15.13.44-.01.54-.24.17-.33.1-.57-.06-.28-.18-.24-.51-.32-.68-.08-.17-.11-.16-.29-.19-.14-.01-.11-.37-.1-.51 .02-.14.18-.18.18-.18 .18 0 .24.14.25.28 .02.2.14-.04.24-.16 .14-.18.08.52.18.52 .05.01.18-.3.35-.26zm-3.09 2.48c.16-.03.39.21.24.38-.17.2-.62.37-.58.51 .04.15-.36-.12-.11-.47 .25-.35.33-.39.45-.42zm-.18 2.15c-.18.15-.25.52-.33.4-.03-.05-.11-.23-.04-.6 .07-.37.28-.57.44-.5 .07.03.06.6-.07.7zm-.08-2.79c-.05.14-.12.42-.29.34-.07-.03-.19-.49.08-.69 .09-.05.27.2.21.35zm.04 3.53c.2-.13.29.34.2.51-.1.17-.41.46-.5.65-.1.2-.22-.32-.14-.51 .08-.18.28-.55.44-.65zm-.46-2.47c-.02.18-.01.4-.25.5-.13.06-.13-.1-.15-.3-.01-.15 0-.42.13-.44 .14-.01.32.03.27.24zm-.45 1.3c-.1-.06.04-.37.12-.46 .11-.1.2.1.2.18-.02.11-.17.39-.32.28zm.16 1.17c-.12.27-.18-.12-.19-.17-.01-.15-.07-.5.05-.56 .17-.07.37.21.14.73zm-.2.38c.11-.06.27.31.2.5-.07.19-.41-.13-.41-.24 0-.12.14-.22.21-.26zm-.2 1.48c.03-.21.15-.27.24-.27 .08 0 .15.04.15.24 0 .29-.17.52-.19.53-.07.01-.21-.27-.2-.5zm.46 1.16c.1-.06.29.14.3.22 .02.09.16.33.1.4-.05.07-.21.16-.4-.08-.11-.17-.24-.42 0-.54zm.42 1.19c.12.02.16.21.13.34-.02.13.14.34 0 .34-.13 0-.2-.1-.26-.25-.06-.16.04-.44.13-.43zm.22 1.97c.04-.15.09-.59.26-.59 .22 0 .15 1.63.06 1.77-.1.14.05 1.63-.06 1.55-.19-.13-.36-1.54-.36-1.68 0-.17-.06-.44-.07-.64-.01-.12.13-.29.17-.41zm-.54 7.27c-.06.26-.14 1.17-.23 1.13-.08-.05-.04-.97.05-1.17 .08-.2.19-.39.34-.54 .07-.06-.11.32-.16.58zm-.23 1.77c-.01.11-.02.22-.05.34-.02.15-.18.06-.18-.22 0-.08.05-.34.18-.35 .03.06.05.14.05.23zm-.12.79c.18-.04.3-.71.44-.62 .14.08-.05.84-.26.89-.42.12-.56.72-.61.55-.06-.18-.15-.9.01-.97 .17-.07.16.21.42.15zm-.31 1.78c-.43.23-.29.62-.4.62-.14 0-.33 0-.43 0-.1 0 .01-.26.06-.33 .09-.22.29-.36.51-.39 .12-.01.32.06.26.1zm1.85.57c-.04 0-.01-.25.12-.5 .07-.11.17-.28.3-.28 .12 0 .34.01.36.01 .23-.02-.09.2-.24.33-.15.13-.05.44-.15.47-.13.02-.2-.01-.39-.03zm5.22 8.92c.08-.06.11-.16.08-.26-.03-.06-.12-.24-.05-.26 .08-.01.16-.04.25-.05 .07-.03.3.42.19.54-.1.04-.53.05-.47.03zm1.66.29c0-.07.24-.04.39-.02 .15.01.13.08.14.14 .04.14-.17.13-.33.13-.2 0-.2-.1-.2-.25zm.28-.32c.04-.07.06-.16.04-.25-.05-.11-.34-.45-.25-.45 .09 0 .14-.03.24.04 .07.04.32.26.33.36 .02.1.07.31-.05.34-.13.03-.35.06-.31-.04zm2.08-5.91c-.04-.03-.04-.12.04-.12 .05 0 .13.05.1.09-.03.03-.08.04-.14.03zm.57-4.32c0-.07.04-.17.11-.15 .07.01.09.13.11.18 .05.13.06.26.05.39-.05.07-.12.11-.21-.14-.03-.09-.06-.18-.06-.28zm.27-.76c-.07.07-.12.02-.14-.08-.03-.09.11-.25.05-.41-.05-.15-.14-.37-.08-.38 .05-.02.24.35.24.5 0 .14.01.31-.07.37zm-.27-.2c0 .05-.05.15-.09.12-.05-.02 0-.39-.12-.52-.05-.07.02-.16.12-.16 .09 0 .09.44.09.56zm-.48-.27c0 .27.08.54.23.75 .03.03 0 .16 0 .19 0 .02.06-.02.09-.08 .05-.1.22-.05.27.1-.11-.01-.22.03-.3.1-.04.05-.14.23-.03.32 .11.08.24.28.13.28-.07 0-.25.06-.3-.13-.04-.18-.02-.27-.08-.57-.03-.17-.14-.24-.24-.52-.07-.22-.23-.4-.07-.57 .07-.07.31-.06.3.13zm-.2-.56c-.04.14-.51.03-.64-.14-.12-.17-.15-1.92-.09-2.19 .02-.12.07-.7.29-.73 .18-.03.25.37.3.56 .06.27.18 2.37.14 2.5zm-.48-4.94c.04.26-.55 1.61-.64 1.62-.1.02-.15-.4.07-1.88 .04-.15.07-.32.08-.48-.11-.5.08-.43.15-.65 .07-.23-.15-.23.03-.47 .14-.2-.01-2.31.35-2.41 .14-.04.33.85.18 2.29-.06.46-.27 1.71-.22 1.98zm.22-5.55c.05.08-.27.05-.27-.23 0-.28.19-.51.34-.51 .15 0 .19.27.12.41-.07.14-.25.24-.19.33zm1.61 1.17c-.07.07-.42-.3-.2-.52 .14-.13.35.03.38.13 .03.1-.07.27-.18.39zm.18-3.61c-.08.17-.08.37.01.53 .14.26-.07.11-.07.11 0 0-.22-.05-.27-.57-.03-.35.07-.71.29-.99 .21-.23.33-.7.11-.67-.1.01 0 .51-.25.57-.22.06-.39-.23-.39-.56 0-.32-.01-.42-.08-.51-.07-.08-.23-.1-.24-.17-.01-.07.1-.21.29 0 .09.1.09.1.27-.04 .18-.15.37-.09.43.04 .07.16-.41.6-.36.75 .05.22.26-.52.54-.44 .27.09.04.5.16.57 .13.07.24.47.09.81-.16.35-.41.35-.53.57zm-.5-9.29c-.11-.02-.35-.25-.14-.4 .13-.13.25-.23.39-.33 .28-.16.04-.27.36-.34 .39-.1.55-.21.65-.2 .35.04.53.3.63.37 .09.07-.23.41-.56.53-.46.18-.78-.02-.91.15-.09.1-.37.23-.09.43 .11.09.04.11-.14.1-.26-.01-.11-.3-.19-.31zm-.28-1.56c.06-.28.35-.39.42-.45 .07-.06-.02-.34.1-.33 .24.03.48.02.73-.04 .31-.09.5-.46.53-.31 .04.29-.17.88-.34 1.11-.13.18-.41.02-.62.04-.21.01-.33.07-.37.26-.03.15 0 .28-.14.25-.23-.06-.35-.3-.29-.53-.02.02-.02.02-.02 0zm.82 1.98c.38-.38.69-.38.76-.38 .16 0 .11.53.23.65 .04.05-.13.25-.32.35-.2.1-.43.12-.46.18-.14.23.14.4-.03.47-.21.1-.39.04-.46-.11-.07-.16-.11-.77.28-1.16zm.01 1.87c.05-.13.42-.31.49-.41 .07-.1-.04-.2 0-.32 .04-.11.26-.15.39-.22 .14-.05.28-.03.4.04 .21.13.13.34-.14.6-.26.25-.71.38-.66.48 .07.14.04.31-.06.44-.12.19-.19.13-.3-.03-.14-.17-.19-.38-.12-.58zm.27 2.06c.11 0 .16.23.16.39 0 .15-.34.54-.51.75-.08.12-.23-.33-.18-.45 .06-.13.31-.69.53-.69zm.26 2.55c.38.24.45-.38.54-.67 .1-.28.25-.25.36-.01 .17.37-.07.51-.12.77-.15.78-.4.28-.35.65 .06.37.17.61.02.61-.16 0-.43-.37-.41-.58 .03-.21.13-.41.06-.5-.18-.2-.49-.27-.57-.72-.08-.46.26-1.16.54-1.16 .1 0 .22.15.22.32 0 .17-.36.59-.44.79-.08.19-.01.4.15.5zm-.79-1.32c.14.04.14.21.07.45-.07.25-.11.52-.06.63 .06.11-.25.06-.3-.33-.06-.38.14-.79.29-.75zm2.55-3.8c-.27.1-.4.22-.38.41 .01.21.15.21.22.28 .07.08.04.13-.25.15-.18 0-.21-.22-.29-.42-.09-.2-.09-.31.16-.52 .25-.22.81-.77.82-.87 .02-.1-.16-.17 0-.26 .17-.08.54-.51.65-.43 .12.09.1.36.12.47-.03.29-.14.56-.32.77-.18.2-.46.32-.73.42zm-3.27-3.71c.04-.02.14-.05.05.22-.06.34-.11.7-.09 1.04 0 .05-.06.08-.06.11 0 .03-.04.06-.08.09-.29.21-.32.55-.28.54 .11-.16.24-.3.36-.43 .07-.06.13.1.11.19 0 .2-.04.39-.11.58-.11.28-.32.37-.37.7-.03.13-.1.51-.02.72 .14.33.13.22.13-.08-.03-.14-.02-.29.01-.43 .07-.14.14-.27.22-.4 .12-.17.18-.31.34-.3 .22.03.18.52.15.69-.03.15-.06.31-.1.47-.11.41-.33.21-.41.65-.06.29-.03.59.05.57 .09-.01.1-.45.58-.8 .05-.02.25.03.19.35-.02.09-.2.07-.09.19 .11.13-.14.26-.21.47-.08.29-.32.32-.26.37 .22.19.12.83.21.63 .15-.34.39-.82.59-.82 .1 0 .13.31-.12.74-.33.55-.35.71-.46.71-.21-.02-.25-.24-.22-.64 .01-.32-.28-.39-.43-.72-.08-.15-.03-.65-.18-1.18-.15-.52-.33-.51-.39-.89-.05-.39.31-.84.21-1.09-.06-.14-.04-.31.04-.44 .14-.22.26-.35.26-.58 .02-.44.27-1.15.38-1.23zm-3.05-6.63c.26-.16.58-.2.87-.14 .36.05.53.25.46.5-.09.3-.35.45-.71.61-.22.1-.22.21-.14.27 .13.08.26 0 .38.04 .33.14.43.47.5.49 .12.02.16-.12.05-.3-.14-.22-.35-.36-.36-.52-.01-.12.17-.29.42-.18 .25.11.07.38.19.57 .1.13.28.37.26.58-.01.26-.13.5-.33.67-.22.17-.1.22-.07.23 .03.01.14-.16.28-.09 .14.08.18.22.32.4 .14.19.33.24.36.6 .03.21-.01.41-.13.6-.31.53 0 .37.14.54 .09.08.11.21.07.33-.04.28-.21.45.02.72 .08.12.09.29.01.33-.15.09-.01.57-.1.63-.08.05-.32-.23-.29-.03 .03.2.21.24.17.4-.04.15-.22.2-.26.11-.06-.13-.12-.26-.2-.37-.05-.06-.19-.17-.11.07 .03.09.07.17.11.24 .04.09.03.15.04.37 .02.23 0 .3-.09.35-.16.08-.46-.32-.48-.45-.01-.12.02-.27-.09-.41-.11-.14-.28-.54-.11-.77 .16-.22.23-.04.29.03 .16.24.19.04.09-.14-.07-.11-.18-.09-.18-.27 0-.19.02-.63.27-.91 .25-.29.32-.86.25-1.04-.14-.29-.31-.54-.5-.8-.17-.14-.22-.37-.17-.57 .07-.35.17-.75.07-.77-.1-.01-.36-.44-.5-.4-.14.05-.78-.17-.86-.35-.08-.19-.14-.44.24-.63 .37-.18.48.13.51-.04 .03-.13-.04-.26-.18-.29-.04-.01-.08-.01-.13 0-.2.05-.32.05-.41.23-.1.19-.17.41-.29.41-.14.02-.18-.18-.17-.28 .12-.2.28-.43.49-.57zm-1.14.44c.01-.2.07-.4.16-.55 .13-.2.34-.33.56-.36 .22.01.15.27.12.38-.12.25-.22.49-.32.73-.06.2-.27.39-.38.33-.11-.06-.17-.19-.14-.53zm-2.13.66c.06-.07.09-.16.09-.25-.03-.17-.11-.31-.24-.42-.12-.13-.18-.32-.17-.5 0-.14.12-.26.25-.29 .14-.02.3.02.41.12 .18.15.16.37.14.58-.03.17-.09.34-.16.5-.02.07-.04.14-.04.21h-.01c.21-.02.41-.05.64-.05-.03-.02-.06-.07-.07-.25 .01-.09-.02-.21-.07-.29-.14-.2-.14-.47-.02-.69 .09-.1.21-.13.34-.1 .16.09.16.42.16.42 0 .24.04.48-.01.59-.11.23-.2.22-.14.32h-.04 .14c.12.01.23.01.33.03 0 0 .08-.06.06-.25-.03-.18-.14-.24-.18-.44-.05-.18-.02-.4.06-.57 .1-.18.19-.23.27-.23 .14 0 .3.1.32.47 .01.37-.13.37-.18.62-.04.14-.06.27.05.37 .04.04.04.05.03.05 .13.02.24.05.36.08 1.56.37 1.83.95 1.94 1.15 .23.44.17.97.3 1.08 .16.17.27.38.32.63 .05.4-.56.57-.7.84-.1.21-.14.24-.23.2-.35-.12-.48-.89-.8-1.01-.15-.06.71-.33.95-.62 .26-.31.08-.15-.43.05-.39.15-1.11.45-1.54.15-.43-.3.04-1.05.36-1.26 .32-.22.64-.32 1.11.15 .44.44.46.47.5.46 .04-.02-.43-.86-.79-1-.54-.2-1.04-.14-1.67.78-.36.53.14.69.24 1.09 .11.52-.2.38-.25.47-.03.04-.1.08-.36.08-.27 0-.23.03-.38-.1-.08-.07-.51.09-.41-.44 .07-.4.38-.47.16-1.07-.3-.82-.97-1.11-1.66-.79-.35.15-1.03.86-.99.88 .04.01.36-.16.75-.49 .39-.32.78-.21 1.08 0 .27.19.39.83-.01 1.13-.4.3-.74.13-1.14.03-.33-.09-.66-.25-.86-.22-.25.05-.05.12.03.12 .12 0 .26.04.37.1 .11.05.25.24.46.32 .29.13.67.05.6.12-.17.15-.43-.02-.67.8-.04.14-.16.17-.28.25-.01.06-.02.13-.04.19-.05.2-.09.08-.09.27 0 .18.23.08.19.47-.01.21.1.37-.14.28-.15-.06-.18-.37-.4-.3-.08.03-.02.16.12.22 .1.05.17.15.18.27 .06.34-.05.48-.05.74 0 .25.07.3.32.35 .25.06.48.07.65.27 .17.2.03.43-.04.56-.1.17-.18.07-.31-.07-.12-.14.03-.33-.44-.44-.33-.09-.33-.07-.47-.16-.14-.09-.1-.34-.11-.56-.02-.34.18-.15.15-.44-.03-.28-.17-.17-.21-.44-.04-.27-.01-.31.19-.5 .19-.15.19-.27.19-.27l-.02-.51c-.35-.38-.82-.54-.86-1.11-.01-.2.17-.43.43-.65 .13-.12-.07-.65.1-1.06 .15-.37 1.15-.85 2.33-1.05l.01.03zm-1.13-1.23c.09-.2.43-.25.62.12 .11.2.14.45.07.68-.01.14-.08.27-.19.34-.03.02-.1.03-.09-.08 .02-.12-.23-.35-.33-.49-.11-.15-.15-.37-.08-.57zm-3.09 4.71c0-.18.13-.31.3-.24 .16.07.26.36.23.57-.04.19.06.39.24.47 .14.04.22-.07.25-.3-.03-.25-.13-.5-.28-.69-.18-.26-.42-.2-.5-.55-.15-.59.06-.65.08-.89 .02-.2.11-.53.3-.54 .13-.02.33.12.31.47-.04.69.06.2.1.1 .07-.12.13-.25.17-.39 .04-.21-.03-.43-.2-.57-.15-.13-.12-.34-.12-.44 0-.14.08-.17.22-.24 .14-.07.13-.2.03-.23-.06-.01-.14.04-.22.09-.17.07-.13-.35-.13-.52-.01-.25.15-.37.33-.45 .25-.12.31-.04.46 0 .14.04.29 0 .39-.12 .08-.1.13-.22.31-.25 .12-.03.23.03.47.21 .28.2.35.46.44.66 .1.2.1.28.06.38-.06.06-.15.06-.21 0-.01-.01-.01-.01-.03-.03-.07-.13-.16-.24-.25-.34-.09-.11-.15-.27-.33-.31-.22-.05-.24-.1-.06.07 .16.16.3.33.41.51 .07.19-.06.16-.1.16-.13-.07-.24-.19-.32-.32-.08-.12-.22-.21-.36-.19-.13.01-.25.19-.39.21-.14.01-.21-.04-.29.01-.08.06.24.13.29.23 .06.1.01.09-.14.24-.15.16.14.15.27.12 .12-.03.22-.23.25-.3 .02-.07-.07-.32-.02-.37 .06-.06.22.18.27.28 .04.1.06.39 0 .43-.07.04-.66.63-.78.95-.13.33 0 .62.01.77 .02.16-.23.47-.3.61-.09.29-.09.57-.02.86 .09.21.27.53.34.7 .07.15.02.35-.1.47-.22.22-.18-.2-.28.05-.14.26-.37.46-.65.53-.29.03-.35-.09-.42-.17-.07-.09.07-.2.2-.29 .12-.08.11-.21.11-.35 0-.14-.16-.24-.27-.39-.12-.1-.08-.48-.07-.67zm-.04 4.59c.18-.04.21 1.41-.05 1.54-.1.04-.1.3-.07.54 .03.24-.17.13-.31.44-.11.24-.11.51-.23.44-.13-.07-.06-.3-.06-.53 0-.22-.05-.41-.25-.78-.15-.28.02-.34.21-.31 .19.03.32.67.4.48 .04-.17.06-.35.02-.54-.02-.1-.12-.11-.27-.31-.09-.12-.07-.4-.04-.6 .03-.2-.12-.11-.19-.5-.03-.16.18-.27.23-.2 .06.07.03.2.18.29 .16.08.22.15.22.31 0 .26.1.31.1.31 .09-.11-.04-.55.11-.58zm-.08-.4c0 .07-.22.06-.29-.27-.09-.34-.33-.14-.4-.5-.03-.2.05-.4.2-.51 .11-.11.34.33.42.61 .06.23.08.46.07.67zm-.07-1.51c-.04.13-.24.2-.25.09-.01-.12.06-.26-.11-.42-.13-.11-.13-.31-.25-.37-.26-.11-.31-.25-.24-.32 .07-.08.35.01.53-.16 .18-.17.11-.4.15-.51 .05-.12.1-.09.13 0 .07.18.07.38.01.58-.08.17-.21.26-.05.47 .11.19.14.43.08.64zm-.97-3.84c.23-.03.46.05.61.24 .3.37.33.74.25.61-.14-.2-.36-.24-.58-.37-.13-.07-.09-.21-.13-.3-.04-.08-.21-.18-.15-.18zm-1.29-.19c.25-.13 1.19.37 1.05.43-.14.06-.8.16-.97.01-.1-.08-.18-.38-.08-.44zm-.13 1.85c.2.17.14.59.53.64 .1.02.29-.05.38.05 .06.07.54.11.63.01 .1-.1-.05-.38-.33-.44-.28-.06-.69.04-.97-.16-.21-.15-.28-.44-.15-.67 .08-.12-.16-.28.11-.47 .36-.27.9-.07 1.2.06 .31.13.8.56.88.64 .18.2.11.53.05.66-.08.15-.3.02-.38-.3-.1-.27-.27-.53-.48-.73-.09-.07-.3-.07-.3-.03 0 .05.29.29.4.46 .29.43.5 1.01.14 1.24-.14.08-.61-.06-.5.05 .11.12.06.3.17.39 .26.2.39.37.33.71-.04.26-.24.37-.5.37-.12 0 .13-.68-.14-.65-.26.02-.69-.09-.8-.4-.09-.26-.21-.19-.29-.25-.09-.04-.12-.15-.07-.24 0-.01.01-.03.02-.03 .1-.15.16-.49-.01-.68-.14-.18-.08-.4.08-.23zm-2.91-1.81c.29.05.36.49.41.1 .03-.14-.22-.28-.31-.34-.07-.04 0-.18.08-.18 .23-.03.39.31.54.25 .46-.17.61-.61 1.19-.57 .59.05.52.45.53.67 .01.12.31 0 .29.63-.01.51.17.14.11.58-.01.06-.14.05-.11.1 .16.4-.12.44-.23.47-.14.05-.18.15-.13.2 .22.19.35.36.21.47-.11.09-.62-.07-.36.13 .33.26.57 1.01.23 1.22-.2.15-.41-.28-.73-.34-.13-.01-.13.12.03.26 .18.16.58.38.61.8 .01.34-.2.79-.36.85-.28.1-.23-.14-.14-.31 .05-.09.15-.17.05-.27-.05-.05-.02-.19-.12-.23-.24-.13-.49.06-.76-.23-.14-.13-.16-.43-.02-.45 .1-.02.21.17.36.14 .16-.03.2-.47.06-.56-.29-.2-.45-.14-.61-.17-.11-.01-.21-.2-.13-.2 .24 0 .88-.14 1.07-.65 .1-.26-.01-.87-.22-1.18-.1-.17-.25-.3-.43-.39-.14-.05-.38-.03-.32-.01 .85.15.97 1.31.53 1.65-.6.47-.92.21-.75.1 .36-.23.5-.53.5-.74 0-.19-.36-.47-.81-.54-.4-.06-.72-.19-.8-.63-.09-.44.23-.68.54-.63zm-3.1 6.16c-.04-.02-.11-.25.1-.52 .13-.15.31-.35.15-.31-.15.06-.36.16-.41.27-.14.34-.23.16-.16-.04 .12-.23.27-.43.46-.59 .14-.1.4-.11.61-.18 .21-.07.56-.41.68-.44 .13-.03.17.05.14.15-.03.1-.1.15-.23.32-.17.21-.34.42-.48.65-.05.12-.19.13-.37.13-.13 0-.18.07-.26.21-.13.2-.19.35-.23.35zm1.64-.4c-.17.14-.33.25-.53.35-.08.05-.14-.1-.12-.13 .07-.12.43-.29.53-.34 .09-.04.16.09.12.12zm.1.58c.01.06-.04.13-.1.13-.01 0-.04 0-.05-.02-.1-.02-.2-.08-.2-.15 .02-.07.06-.12.13-.14 .07-.02.2.11.22.18zm-.74-.54c-.08.14-.23-.01-.15-.1 .08-.09.36-.34.47-.37 .04 0 .13.04.1.07-.04.1-.28.19-.42.4zm-.69.45c-.02-.11.08-.49.15-.54 .06-.02.13-.02.2-.01 .04.09-.06.18-.09.26-.03.07-.23.47-.26.29zm.46 1.1c-.1-.1.3-.18.02-.26-.2-.05-.43-.46-.31-.55 .08-.06.23.51.41.3 .08-.12-.23-.31-.25-.5-.01-.13.02-.28.18-.24 .17.04.34.41.31.61-.06.34.16.09.11.14-.04.03-.08-.47.01-.4 .07.13.13.27.14.43 0 .09.21-.18.31-.23 .19-.08.45-.12.57-.28 .12-.14.12-.34.02-.49-.08-.09-.34-.22-.45-.37-.12-.14.04-.21-.09-.28-.12-.07-.15-.26.02-.23 .16.03.51.51.59.67 .09.16.42.63.38.77-.04.14-.61.19-.77.26-.15.07-.04.18-.22.25-.11.05-.21.1-.3.17-.04.03 0 .15-.24.17l-.1.02c.13 0-.22.17-.34.04zm1.11-1.49c.04-.02.19.11.22.17 .04.08.08.22 0 .25-.06.03-.28-.2-.31-.28 0-.04.03-.12.09-.14zm-.64 1.92c-.15-.1.72-.84.82-.88 .14-.05.29-.06.44-.06 .06 0 .21.01.22.06 .02.08-.11.15-.29.12-.18-.02-.33.12-.43.17-.18.13-.65.66-.76.59zm1.46.11c-.23.6-.13-.07-.18-.05-.16.04-.2.35-.3.47-.09.11-.41.14-.57.09-.12-.02-.02-.45 0-.54 .17-.37.23-.47.37-.47 .19.02.38-.01.56-.07 .09-.03.1-.17.23-.28 .18-.16-.11-.26-.04-.3 .16-.09.18-.24.23-.44 .04-.22-.04-.43-.21-.54-.15-.1-.54-.47-.55-.66-.02-.18-.5-.65-.27-.51 .21.11.59.36.96.06 .22-.19.31-.29.33-.46 .03-.17-.11-.2-.15-.14-.11.15-.22.4-.73.33-.25-.05-.25-.06-.07-.12 .15-.06.22-.11.14-.17-.09-.06-.89-.08-1.21.04-.14.06-.47.36-.67.42-.14.04-.36.07-.14-.12 .16-.14.31-.27.48-.38 .11-.09.01-.54.08-.69 .05-.09.17-.37.93-.37 .15 0-.13-.38-.33-.37-.1 0-.18-.35-.57-.35-.2.03-.38.16-.49.33-.12.2-.15.64.03.62 .19-.01.26.16.26.37 0 .29-.12.5-.39.56-.22.07-.39.27-.43.51 0 .17-.07.33-.19.43-.29.21-.65.08-.71-.26-.04-.24.29-.81.58-.98 .18-.1.25.07.27-.2 .01-.17.12-.47.28-.51 .05-.02-.03-.62.04-.76 .14-.28.64-.6.82-.64 .18-.04.52-.08.69-.25 .17-.18.19-.49.32-.49 .26 0 .35.37.6.49 .25.11.69.25.79.47 .23.45-.27.47-.31.52-.4.44-1.01.19-1.04.27-.04.14-.01.14.01.14 .23.03.66-.07.89.05 .29.11.49.4.5.71 .02.14.42-.13.1.43-.07.12-.1.28-.11.42-.03.35-.08.64.11 1 .19.36.07.44-.08.66-.28.37.08 1.05-.13 1.08-.57.13-.65.44-.73.65zm-1.89-5.11c.04-.11.4-.1.47-.04 .07.06.11.18 0 .2-.31.04-.26-.07-.32-.07-.05 0-.17-.05-.15-.09zm1.94 9.18c.1-.08.33.15.33.29 0 .14.07.43.27.4 .19-.03.48-.36.18-.63-.27-.23.07-.23-.47-.71-.18-.16-.29-.77-.04-.84 .24-.07.47.4.55.48 .08.09.08.26.39.2 .1-.01.12-.31-.07-.5-.25-.24-.43-.52-.56-.85-.08-.28.09-.4.23-.33 .11.06.4.46.61.46 .23 0 .18-.13.22-.3 .04-.14-.43-.41-.6-.58-.15-.15-.23-.35-.22-.56 .01-.26.13-.51.32-.7 .11-.08.33.1.36.19 .03.08.22.21.22.21 0 0 .03.16-.09.13-.23-.04-.27.04-.27.11 .03.16.11.29.24.39 .16.11.33.25.48.4 .11.11.07.61.02.62-.18.07-.06.2-.25.27-.21.07-.42.1-.64.06-.08-.01.23.28.36.33 .22.07.36.45.31.67-.05.21-.1-.02-.19.24-.05.18-.61.14-.81-.06-.06-.06-.21.03-.02.26 .2.23.56.35.57.58 0 .22-.11.41-.28.53-.12.08-.36.06-.4.23-.04.17.2.27.2.37 0 .1-.34.44-.46.45-.13.02-.1-.13.05-.28 .21-.2 0-.3-.12-.49-.13-.18-.43-.22-.53-.44-.04-.21-.01-.44.11-.6zm.24 2.74c.12-.09.12-.19.09-.34-.02-.19-.4-.46-.43-.7-.02-.17-.11-.43-.02-.4 .23.06.27.41.51.6 .24.18.47.55.33.77-.25.38-.73.24-.48.07zm1.39 1.18c-.05.06.06.4-.03.58-.09.19-.28.29-.47.24-.16-.04.25-.19.26-.35 .03-.2-.07-.39-.25-.47-.22-.09-.39-.29-.43-.53 0-.13.12-.2.26 0 .13.17.31.29.5.3 .25.02.36-.11.39-.18 .08-.29-.23-.4-.37-.52-.14-.12-.24-.28-.27-.47-.03-.14-.09-.35-.01-.44 .18-.18.36.09.36.2 0 .07-.06.23.03.27 .25.16.46.37.58.63 .14.23.08.53-.12.67 0 0 0 0-.02 0-.11.1-.37.01-.41.07zm.44 2.39c-.31.06-.4-.14-.28-.27 .13-.13.24-.11.24-.24 .01-.22-.14-.23-.15-.47-.02-.16.22-.13.22-.13 .21.07.21.44.21.75 .01.15-.09.29-.24.36zm.32-3.63c.05-.13.21-.54-.02-.7-.15-.13-.33-.21-.54-.25-.16-.02-.29-.25-.36-.39-.12-.27.1-.61.24-.58 .29.04.19.47.47.51 .28.04.32-.43.25-.58-.14-.27-.69-.42-.61-.94 .03-.24.14-.23.25-.22 .22.02.33.25.51.26 .2.01.28-.24.24-.46-.03-.17-.74-.61-.82-.75-.08-.14.19-.48.36-.55 .17-.08.25.28.47.37 .22.08.25.01.31-.09 .16-.33-.56-.47-.77-1.03-.08-.22.27-.48.48-.58 .14-.07.36.31.52.27 .12-.06.17-.2.12-.33-.23-.25-.55-.25-.6-.37-.17-.27-.33-1.04-.02-1.04 .12 0 .39.52.77.49 .15-.02.21.06.21.21 0 .16.16.33.27.5 .11.17.03.6-.23.77-.27.17-.59-.01-.72-.1-.05-.03-.1.18.22.31 .34.15.64.8.29 1.06-.35.25-.71.12-.78.21-.07.09.07.1.18.16 .07.04.09.14.16.22 .12.15.38.12.22.55-.18.47-.82.47-.72.56 .27.33.38.38.37.57-.01.2-.18.59-.53.65-.21.04-.36.04-.07.24 .16.11.6.2.41.68-.23.53-.59.5-.53.37zm.21 6.55c-.02-.16-.06-.27-.13-.76-.07-.55-.11-1.99.1-2.07 .15-.06.48.92.48 1.15 .02.44-.08.58-.06.67 .01.08.08 1.39.01 1.61-.07.21-.07.37-.2.37-.12 0-.16-.67-.2-.97zm.01 7.09c.26.07.54 0 .75-.19 .18-.14.26-.31.35-.66 .05-.29.08-.57.09-.87 .02-.13-.11-.06-.13.34 0 .21-.07.43-.21.6-.09.1-.16.24-.24.1-.14-.23.08-.54.18-.89 .06-.22-.1-.75-.22-.31-.1.34-.01 1.08-.29 1.22-.13.06-.33-.04-.21-.34 .08-.21.15-.42.19-.64 .06-.21.14-.52.16-.64 0-.04.01-.24-.11-.24-.09 0-.1.27-.12.41-.04.39-.08.86-.2.73-.06-.06-.03-.53.05-1.03 .04-.2.1-.42.15-.68 .06-.26 0-.54.07-.74 .05-.14.2-.38.24-.64 .04-.26.15-.46.22-.7 .2-.67.22-1.38.1-2.06-.1-.56-.29-2.39-.15-2.64 .05-.11.41-.12.57-.25 .12-.1.18-.39.23-.44 .14-.19.4-.25.7-.57 .09-.1.01-.66.26-.69 .25-.03.35.46.24.64-.07.12.41.47.45.76 .05.28-.11.14-.08.7 .04.88.13 1.76.26 2.63 .06.3.16.6.23.98 .08.43-.18.54-.09 1.1 .04.2-.01.4-.14.55-.23.33-.43.46-.47.94-.05.69-.41 1.34-.36.79 .02-.16.04-.69-.05-.56-.1.13-.1.77-.31 1.13-.21.35-.1.49-.11.94 0 .24-.44.42-.36.74 .05.22-.43.82-.75 1.13-.14.15-.01.19.21.09 .15-.07.4-.31.41-.28 .06.08-.18.54-.52.61-.13.03-.39.01-.49.08-.12.09-.25.17-.37.27-.12.1-.27.16-.42.15-.1 0-.21.27-.29.11-.03-.06.08-.43.08-.47-.03-.19-.15-.23-.18-.16-.03.07.01.37-.17.37-.18 0-.23-.37-.08-.52 .08-.12.24-.17.38-.12 .13.02.23-.08.06-.23-.16-.14-.2-.38-.09-.56 .16-.19.16-.06.55.02l.03-.01zm-1.08 2.38c.01.14-.43.14-.45.05-.02-.2.24-.51.32-.55 .09-.04.25-.07.25 0 0 .07-.15.31-.12.5zm-.32-2.44c.14-.25.29-.34.4-.34 .22 0 .24.07.38.24 .02.03-.06.06-.2.17-.18.16.09.52-.01.62-.1.1-.49.49-.52.24-.04-.2-.09-.41-.15-.61-.04-.12 0-.12.1-.32zm.12 1.57c-.05.23-.26.38-.48.35-.15-.02.11-.25.16-.41 .09-.21-.25-.51-.27-.2-.03.36-.2.1-.13-.17 .04-.15.21-.23.39-.13 .18.1.42.23.33.56zm-.58.9c.04.15.01.18-.17.18-.18 0-.31-.17-.15-.38 .1-.17.28-.29.47-.27 .09 0 .18.18.09.2-.2.02-.27.15-.24.27zm-.48-1.14c.13-.05.2.15.22.27 .02.18-.14.11-.11.18 .02.07.04.27-.05.3-.11.04-.36.07-.43-.04-.11-.16-.02-.17.16-.22 .09-.02.12-.25.12-.25 0 0-.04-.21.09-.24zm-.42-.53c.15-.17.33.04.47-.07 .11-.09.22-.29.32-.83 .1-.54.31-.5.33-.4 .03.1-.08.32-.08.5 0 .12-.01.22-.04.33-.06.13-.14.26-.24.36-.07.08-.1.41-.3.48-.21.07-.63-.21-.46-.37zm-.03.4c.06-.06.21 0 .21.06 0 .05-.1.08-.06.19 .03.08-.01.22-.08.12-.04-.07-.11-.33-.07-.37zm0 1.35c.07-.33-.03-.31.28-.35 .14-.02-.03.11-.04.25-.02.14.12.26 0 .26-.25 0-.29.01-.24-.16zm.38 5.11c-.2-.01-.3.07-.35-.07-.03-.08.17-.47.26-.55 .14-.13.53-.09.53-.09l-.03.16c0 0-.07 0-.15.03-.06.01-.11.11-.11.19 0 .2.04.35-.15.33zm.05-.81c-.18.1-.3-1.68-.18-1.69 .13-.02.54.49.54.59 0 .1-.18 1-.36 1.1zm-.67-3.23c.06-.19.62 3.17.48 3.32-.13.14-.24.29-.34.45-.01.02-.23-3.49-.14-3.77zm-1.58 3.34c.06-.27.04-.55-.04-.82-.04-.12.32.1.32.41 0 .37-.33.56-.28.41zm.41 1.41c-.03 0 .02-1.52.02-1.96 .02-.4-.04-2.14 0-2.21 .07-.11.18 1.38.18 1.74 0 .36 0 2.43-.2 2.43zm.38.99c-.09.18-.09.1-.07 0 .03-.1.28-.83.27-1.53-.02-.61-.03-2.36-.06-2.57-.03-.22-.08-.94-.26-1.34-.04-.1-.22-.36-.22-.43 .01-.21.14-.18.26-.03 .25.29.38 1.38.4 1.8 .03.35.1 1.89.06 2.57-.04.53-.17 1.04-.38 1.53zm.32.82c-.01-.04.1-.34.11-.43 .06-.32.06-1.01.09-1.38 .03-.37.03-1.63.01-2.12 0-.21-.07-1.59-.12-1.98-.05-.28-.06-.57-.05-.84 .03-.18.25.57.31 1.07 .04.3.06 1.57.06 1.82 0 .52.13 2.82-.16 3.52-.02.16-.21.44-.25.34zm.84-1.81c-.09.16-.09.89-.13 1.3-.04.41-.44.51-.36.41 .17-.18.18-.41.21-.77 .03-.35-.1-1.26.04-1.46 .07-.1.28.01.37.01 .23-.01.34-.07.34.17 0 .12-.38.17-.47.34zm.8 1.88c-.01.02-.18.2-.22.23-.04.03.25.21.18.23-.07.03-.15.03-.22 0-.06-.04-.24-.24-.22-.31 .01-.08.27-.2.36-.23 .08-.03.13.07.12.08zm-.08-.2c-.24-.08-.43-.27-.52-.51-.04-.18-.09-.33-.04-.48l.02-.06c.02-.04.02-.1-.02-.13 0 0 0 0-.01-.01-.04-.03-.08-.29.01-.36 .13-.1.27-.18.4-.24 .13-.01.24-.06.34-.13 .05-.06.07-.13.04-.2-.03-.08-.13-.13-.19-.28-.06-.13-.07-.66.05-.84 .07-.1.21-.26.25-.33 .01-.03.03-.04.04-.07 .04-.09.07-.23-.09-.2-.17.03-.23-.01-.21-.28 0-.09 0-.3.08-.36 .08-.06.01-.3.07-.43 .07-.15.11-.4.03-.47-.09-.07-.09-.48-.09-.58 .02-.14-.16-.3-.25-.26-.08.05 0 .17 0 .17-.02-.04-.07-.07-.12-.08 .18.1.3.3.32.51 0 .41-.08.23-.18.44-.09.19.01.31-.09.39-.12.1-.33-.22-.36-.35-.01-.07-.01-.31.07-.37 .09-.05.07-.14.06-.27-.03-.21-.01-.35.12-.35h-.01c0 0-.07-.34.03-.42 .08-.04.12-.12.12-.22 0-.09.02-.16.07-.23 .03-.03.22-.09.24-.13 .05-.1.15-.16.25-.16 .12 0 .18.03.3.05 .1 0 .25-.03.34.07 .07.07.05.17 0 .24-.1.09-.06.34-.02.34 .09 0 .03-.18.18-.28 .04-.03.11-.12.16-.12 .11 0 .08.35.05.43-.03.09.07-.14.17-.16 .09-.01.11.27.07.32-.06.07-.1.14-.13.23-.03.15.02.22.13 0 .04-.08.14.01.15.04 .04.08.01.18-.07.24-.06.03-.1.09-.12.14-.06.1.01.24.09.2 .04-.01.07-.18.11-.21 .05-.03.11.04.14.1 .03.04.02.1-.03.13l-.01.01c-.08.06-.21.23-.11.21 .04 0 .26-.07.28-.05 .04.07.07.15-.09.25-.07.05-.13.1-.19.16-.03.01-.03.06-.01.08 .01.02.02.03.04.03 .23.03.27-.14.39-.08 .07.04.01.25-.03.28-.1.09-.33.22-.24.23 .14-.01.27-.06.38-.13 .09-.05.05.16 0 .22-.09.08-.29.05-.34.12-.04.08.11.19.34.1 .07-.01.14-.01.21.02 .09.05.19.1.3.11 .11-.01.21-.04.31-.08 .12-.06.27-.09.41-.07 .11 0 .45.02.64.21 .14.1.31.14.47.11 .1-.01.39-.05.49-.28 .1-.23.1-.47-.02-.7-.11-.21-.2-.57.02-.77 .22-.2.16-.3.18-.48 .03-.16.37-.42.46-.47 .09-.06.15-.16.18-.26 .03-.11.14-.17.25-.14h.01c.11.03.14.13.06.24-.07.11-.16.2-.25.29-.06.01-.25.11-.23.21 .02.06.16.1.24.24 .08.14.04.27-.03.29-.07.01-.18.07-.22.1-.04.02-.08.08-.07.1 .08.1.15.07.17.12 .03.09-.04.13-.14.13-.04 0-.07.03-.07.07 0 .05.03.07.07.07 .08.05.12.15.08.23-.01.03-.04.06-.07.09-.05.01-.11.07-.12.13-.02.04.01.1.05.11h.02c.07.01.05.16.03.2-.03.04-.1.08-.09.17 .02.14.09.21-.04.33-.08.11-.22.18-.36.2-.15.02-.19.1-.36.1-.2 0-.47.12-.64.08-.17-.04-.08.06 0 .14 .32.3.07.64.19.83 .3.4.53.8.71.84 .2.04.38.11.54.2 .09.07 0 .23-.04.28-.04.06-.08.19.02.22 .13.04.22-.06.29.05 .05.09.16.35.25.46 .08.11.01.5-.04.51-.1.03-.31.14-.43.07-.17-.08.11-.25.09-.38-.05-.17-.14-.33-.25-.46-.11-.12-.33-.51-.5-.57-.25-.07-.73-.51-.93-.49-.4.02-1.08-.23-1.51-.67-.14-.15-.11.01-.11.22-.01.17-.15.29-.32.27h-.01c-.28-.04-.38-.28-.48-.39-.08-.1-.19-.16-.32-.19-.18-.04-.31-.53-.36-.54-.08-.03.12.64 0 .74-.08.09-.37.53-.62.58-.19.06-.39.1-.58.13-.14.02-.28.27-.11.36 .11.05-.03.62.02.67 .1.04.21.07.32.07 .06.01.09.14.13.24 .04.1.11.14.08.17-.03.03-.07.09-.33.04zm.62.36c-.07.03-.11.11-.08.18 .01.03.03.06.05.08 .12.08-.01.12-.18.11-.11-.01-.19-.11-.18-.23 0-.01 0-.03.02-.05 .05-.12.16-.2.29-.23 .1-.02.17.11.08.14zm.54.01c-.05.05-.19.12-.15.17 .04.06.15.13.08.15-.07.01-.09.05-.18 0-.08-.07-.14-.19-.12-.32 .05-.08.15-.12.25-.14 .07.03.18.12.12.14zm.38 1.33c-.06 0-.13.03-.1-.04 .01-.03.01-.08.07-.08 .06 0 .13-.01.13.02 0 .06-.05.1-.1.1zm.14-1.07c-.03.04-.09.07-.13.06-.12-.07-.22-.16-.3-.27-.07-.09.26-.17.33-.17 .11 0 .26.05.24.1-.09.05-.17.1-.25.12-.03.02.11.15.11.16zm.22 1.07c-.08 0-.2.03-.14-.06 .01-.03.01-.07.1-.07 .08 0 .19-.01.19.01-.01.09-.08.15-.15.12-.01.01-.01.01 0 0zm.53.48c-.03.16-.06.34-.07.4-.02.07-.18.04-.24-.1-.05-.14-.11-.45.1-.44 .07 0 .23 0 .21.14zm-.11-.47c-.1 0-.23.03-.17-.07 .03-.04.03-.1.11-.1 .08 0 .22-.01.22.03-.01.1-.1.16-.16.14-.02 0-.02 0 0 0zm-.05-.81c-.12 0-.47-.33-.4-.41 .18-.13.38-.22.6-.26 .14 0 .3.02.22.07-.08.06-.28.16-.35.22-.07.05.2.22.18.28-.01.06-.12.12-.25.1zm.48.81c-.1 0-.23.03-.17-.07 .03-.04.03-.1.11-.1 .08 0 .22-.01.22.03 0 .09-.08.14-.16.14zm.51.89c.01.07-.07.09-.18 0-.14-.13-.21-.57-.06-.6 .1-.02.24-.03.27.08 .04.16-.06.39-.03.52zm-.08-.87c-.1 0-.23.04-.17-.07 .03-.05.03-.12.11-.12 .08 0 .22-.03.22.03 0 .1-.08.17-.16.16zm-.13-1.17c.01.07.17.28.15.33-.08.05-.19.07-.3.04-.08-.04-.27-.29-.22-.34 .04-.06.36-.34.48-.36 .13-.01.21.06.18.09-.03.03-.3.17-.29.24zm.31.07c.09-.16.23-.28.4-.34 .03-.02.22 0 .18.03-.04.03-.24.17-.24.22 0 .06.17.38.13.4-.04.03-.24.07-.28 0-.04-.07-.22-.22-.19-.31zm.18 1.03c.02-.05.02-.12.12-.12 .1 0 .25-.03.25.03-.01.1-.1.17-.19.17-.11-.01-.27.03-.18-.08zm.61 1.01c-.27.15-.35-.15-.36-.36-.02-.21-.06-.3.04-.31 .1-.02.19.03.25.1 .03.05.26.44.07.57zm.09-.91c-.11 0-.26.04-.19-.09 .03-.06.03-.13.14-.13 .11 0 .26-.03.26.03-.01.11-.09.19-.21.19zm.28-1.4c-.08.09-.26.14-.22.23 .08.15.28.37.19.41-.12.04-.25.04-.37.03-.11-.02-.22-.27-.22-.34 .05-.2.21-.36.4-.43 .11-.06.29.03.22.1zm.46-.04c.08-.02.24.07.19.1-.04.03-.26.08-.26.2 .01.14.06.27.14.38 .07.06-.14.09-.25.04-.13-.08-.21-.22-.24-.37-.01-.08.23-.31.42-.35zm-.4 1.35c.03-.06.03-.13.15-.13 .13 0 .29-.03.29.04-.01.12-.11.2-.22.19-.13 0-.29.04-.22-.1zm.19 1c-.14-.06-.25-.66-.11-.67 .08-.02.25-.05.32.03 .07.07.11.58.14.64 .03.05-.22.05-.35 0zm.38-1c.02-.06.02-.14.15-.14 .12 0 .29-.03.29.04-.01.11-.11.21-.22.2-.14 0-.31.04-.22-.1zm.45 1c-.15-.03-.2-.49-.16-.59 .04-.1.18-.1.29-.08 .11.01.18.42.31.57 .12.14-.28.12-.44.1zm.28-.9c-.12 0-.29.06-.21-.11 .03-.06.03-.16.16-.16 .12 0 .29-.03.29.04-.02.13-.13.23-.24.23zm.34-.1c.02-.06.02-.16.15-.16 .12 0 .29-.03.29.05 0 .12-.11.21-.22.21-.13.01-.29.06-.22-.1zm.55 1c-.17.01-.5.08-.51-.23-.02-.31-.09-.43.05-.46 .09-.01.28-.04.36.05 .09.08.29.64.1.64zm-.01-1.01c.02-.06.02-.16.15-.16 .12 0 .29-.03.29.04 0 .13-.1.23-.22.23-.13 0-.29.04-.22-.11zm.9 1.06c-.15.06-.46.02-.49-.08-.02-.1-.21-.61-.09-.63 .16-.03.33 0 .48.06 .15.08.18.62.1.65zm-.1-.92c-.16 0-.41.05-.3-.13 .04-.07.04-.17.2-.17 .17 0 .41-.04.41.04-.02.16-.16.27-.31.26zm.42-.13c.04-.07.04-.19.21-.19 .16 0 .4-.04.4.05-.02.15-.15.27-.32.27-.15 0-.4.05-.29-.13zm.53 1.08c-.1.04-.43.03-.48-.03-.04-.05.02-.64.2-.62 .15.01.39 0 .46.03 .07.02-.09.59-.18.62zm.8-.06c-.18.06-.42.06-.47 0-.06-.05-.11-.51.01-.54 .16-.02.32-.02.49.02 .07 0 .12.48-.03.52zm.68 0c-.12.05-.32.06-.35-.01-.02-.17-.01-.34.02-.51 .01-.09.5-.07.5 0 0 .07.02.47-.17.52zm.76-.02c-.01.07-.22.05-.34.01-.2-.06-.17-.47-.17-.53 0-.05.49-.08.5 0 .04.17.04.36.01.52zm.23-1.2c-.06 0 .5.01.5.01-.03.13-.09.25-.16.36-.15.01-.3.01-.47 0-.03 0 .13-.37.13-.37zm.58 1.21c-.06.06-.29.06-.47 0-.16-.04-.21-.55-.14-.57 .19-.03.39-.01.58.02 .14.05.07.51.03.55zm-.01-1.12c.02-.08.23-.05.38-.05 .16 0 .14.09.14.16 0 .16-.18.11-.33.14-.1.03-.18-.03-.21-.13-.01-.02 0-.08.02-.12zm.83 1.16c-.04.06-.39.07-.49.03-.1-.04-.23-.58-.15-.62 .15-.03.3-.05.46-.03 .16.03.22.58.18.62zm-.18-1.15c0-.07.23-.04.39-.04 .15 0 .13.08.13.14 0 .16-.13.13-.3.13-.21.01-.22-.07-.22-.23zm.94 1.1c-.03.1-.25.12-.42.08-.08-.03-.3-.64-.13-.68 .15-.04.32-.04.47 0 .11.01.1.5.08.6zm.24.08c-.06-.01-.16-.62-.07-.7 .08-.07.32-.02.39-.01 .14.03.01.24.14.53 .12.28-.31.25-.46.18zm.23-.94c-.14 0-.09-.17-.11-.23-.01-.05.17-.02.28-.02 .11 0 .08.07.08.12 .03.13-.14.15-.25.13zm.86.91c-.15.05-.44.07-.43-.05 .02-.19-.23-.56-.12-.57 .11-.02.61-.07.65.04 .04.11.03.57-.1.58zm.05-1.14c.02-.05.18-.04.29-.04 .11 0 .08.09.07.14 0 .15-.11.13-.23.13-.08 0-.16-.08-.15-.17 .02-.01.02-.03.02-.06zm.76 1.11c-.14.06-.35.08-.35.03 0-.07-.18-.54-.08-.62 .1-.09.44-.02.53-.02 .12.05.02.57-.1.61zm.23-1.08c.02-.08.17-.05.28-.05 .11 0 .09.08.1.12 .03.12-.11.08-.22.08-.16.01-.17-.09-.16-.15zm.28 1.11c-.12.02-.08-.14-.08-.32 0-.16-.06-.32-.03-.35 .06-.07.26-.04.38-.02 .11.01.13.35.13.57 0 .15-.08.09-.4.12zm.39-.96c-.14 0-.15-.1-.12-.15 .02-.04.15-.03.25-.03 .09 0 .08.06.08.1 .03.12-.1.09-.21.08zm.25-.76c-.04.07-.14.27-.26.29-.13.01-.31.01-.29-.08 .01-.08.06-.2.01-.28-.06-.09-.39-.29-.21-.33 .13-.03.25-.03.36.03 .18.04.43.29.39.37zm.18-1.38c.01.06-.08.08-.11.04-.04-.1-.03-.23.04-.31 .07-.06.07-.14.1-.16 .05-.01.07.23 0 .24-.07.02-.06.12-.03.19zm.17 1.04c.12.14.19.34.18.54-.02.09-.14.1-.24.09-.1-.02.06-.12 0-.29-.07-.26-.25-.28-.32-.34-.04-.04.04-.1.07-.1 .11 0 .22.04.31.1zm-.1 1.08c-.12 0-.14-.08-.12-.13 .01-.04.13-.03.23-.03 .1 0 .07.06.08.09 .03.11-.09.09-.19.07zm.53.87c-.1.06-.21.07-.32.06-.11-.06.08-.36.05-.52-.02-.12.24-.05.34-.01 .19.08.07.37-.07.47zm-.13-1c.02-.04.13-.03.21-.01 .08.01.07.06.07.08 .01.09-.1.06-.18.06-.11 0-.12-.08-.1-.13zm.27-.57c-.07-.07-.29-.4-.17-.42 .1-.03.21-.02.29.02 .1.12.15.26.14.4-.01.13 0 .23-.15.23-.16 0-.06-.14-.11-.23zm.54-1.68v-.25h-.21c.06-.22.12-.46.19-.73 .46.13.93.1 1.36-.08 .12-.06.16.05.12.08-.07.09-.28.1-.49.3v-.1h-.22v.16h.18c-.11.15-.2.32-.25.52-.09.26-.2.52-.36.73v-.01h-.22v.19h.08c-.08.12-.15.19-.15.19-.09-.03-.17-.1-.21-.19h.09v-.19h-.18c-.01-.05-.01-.09-.02-.13 0-.02 0-.03 0-.06h.16v-.26h-.16c.01-.12.02-.25.05-.37v.2h.24zm-.29 2.37c-.11 0-.13-.07-.11-.12 .01-.04.12-.01.2-.01 .09 0 .07.04.07.07 .03.1-.08.06-.16.06zm.19-1.13c.11-.03.24-.03.33.03 .03.11.16.41.1.46-.1.07-.19.11-.25.05-.1-.05-.23-.5-.18-.54zm.21 1.14c-.11 0-.13-.07-.11-.11 .01-.05.12-.02.21-.02 .08 0 .07.05.07.07 .02.08-.09.06-.17.06zm.23.67c-.19.27-.38.26-.41.19-.02-.05.19-.2.21-.35 .01-.14-.02-.28.05-.3 .21 0 .29.27.15.46zm.14-.68c-.09 0-.11-.06-.11-.09 0-.03.11-.01.2-.01 .08 0 .05.04.07.05 .02.08-.07.05-.16.05zm.13-.6c-.06-.09-.22-.53-.15-.59 .05-.04.13-.02.18.03 0 0 0 0 0 .02 .04.07.16.3.12.37-.04.07-.12.21-.15.17zm.21.6c-.07 0-.07-.06-.06-.09 .02-.03.07-.01.13-.01 .05 0 .04.03.04.05 0 .06-.06.05-.11.05zm.27-.69c-.08-.12-.13-.28-.16-.44-.03-.08.05-.08.11-.08 .12 0 .26.32.26.38 0 .06-.18.17-.21.14zm-.02-.99c-.04.1-.23.08-.5.08-.09 0-.04-.37.04-.44 .3-.24.11-.34.29-.48 .07-.06.32-.5.65-.77 .1-.07.02-.12.02-.12 0 0-.03-.42.02-.44 .1-.03.21-.32.2-.35-.02-.03-.11.12-.33.35-.28.29-1.12.39-1.41.09-.11-.1.05-.04.24-.41 .11-.22.17-.47.15-.72-.01-.24-.12-.51-.18-.51-.03 0 .08.47-.14.9-.09.23-.23.42-.4.58-.07.06-.01.24.08.21 .13-.02.02.6-.05.67-.1.12-.17.26-.18.42-.04.14-.06.3-.06.45 .02.17.11.33.04.34-.09.02-.11.25-.09.29 .02.08-.54.13-.63.04-.08-.08.1-.14.15-.2 .06-.05.05-.48-.01-.51-.05-.03-.12-.17-.05-.2 .13-.06.13.14.18.17 .04.03.11-.01.15-.06 .05-.12.05-.27.01-.39-.07-.3-.4-.5-.36-.6 .03-.06.1-.26.06-.29 0 0-.13.26-.21.29-.07.01.1.28.03.34-.09.06-.14.17-.13.27 .03.09-.12.46-.22.56-.1.09-.31.69-.51.68-.21-.02-.55.07-.52-.04 .03-.12.36-.36.42-.47 .05-.12.33-.74.33-.83-.03-.14-.01-.3.04-.44 .1-.19.31-.03.49-.24 .19-.23.36-.47.47-.74 .06-.16.14-.64.2-.79 .09-.28-.14.15-.23.32-.05.12-.11.32-.16.5-.07.18-.18.37-.31.52-.14.14-.36.16-.36-.01 .03-.07.07-.13.11-.19 .03-.04.22-.42.4-.77 .14-.24.46-.75.49-.84-.19.23-.37.47-.54.73-.18.3-.38.61-.43.7-.06.07-.14.08-.22.04-.11-.04-.21-.2-.16-.28 .02-.03.18-.2.27-.28 .18-.15.33-.32.48-.51 .17-.24.31-.5.45-.77 0-.01-.46.63-.57.76-.15.15-.31.3-.49.43-.12.05-.21.02-.25-.05-.04-.07.13-.1.2-.15 .11-.08.36-.35.41-.4 .06-.06.23-.22.31-.33 .18-.2.35-.57.28-.48-.02.01-.16.22-.24.32-.11.13-.29.3-.47.49-.1.1-.21.18-.32.25-.07.05-.15.06-.19.03-.09-.05-.03-.1.01-.14 .04-.04.4-.24.43-.31 .03-.07-.28.1-.4.1-.13 0-.16-.12-.03-.17 .12-.06.25-.15.35-.25 .09-.17.08-.21-.09-.14-.08.04-.09.07-.21.07-.11 0-.19-.1-.09-.17 .11-.1.25-.16.39-.16 .08.02.34-.02.34-.08 0-.07-.19-.19-.36-.19-.11 0-.1.03-.19.15-.18.21-.57.04-.59-.07 0-.08.45.17.55-.08 .05-.1.01-.22-.09-.28-.01-.01-.02-.01-.05-.01-.09-.03-.18-.05-.27-.02-.15.09-.01-.1.16-.14 .08-.02.23-.09.16-.16-.04-.03-.11-.01-.16-.08-.03-.05-.14-.6.15-.77 .14-.09.15-.13.15-.2 0-.14-.14-.23-.18-.26-.05-.05-.05-.15-.01-.21 .04-.06.14 0 .09-.07-.02-.09-.02-.19.03-.27 .09-.1.2-.17.34-.2 .02 0-.1.28-.12.37-.02.11 0 .23.06.33 .07.07.15.12.26.15 .1.03.23.03.32-.01 .06-.05.11-.09.16-.14 .13-.25-.03-.37.02-.53 .02-.04.14 0 .21.08 .1.12.13.26.11.4-.04.26.04.14.1.19 .08.05.11.08.11.17 0 .08-.07.07-.08.11-.02.09.05.22 0 .23-.14.07-.06.21.05.17 .09-.03.06.07 0 .13-.08.07.02.37-.11.53-.08.11-.18.21-.29.28-.14.07-.36 0-.43.03-.07.03-.11.11.01.1 .07 0 .14.04.16.13 .02.07.01.15-.05.21-.08.09-.08.14-.01.11 .18-.08.14-.17.28-.28 .08-.04.15-.09.23-.14 .09-.07.18-.13.3-.16 .13-.06.11-.34.36-.44 .15-.07.33-.06.48.01 .13.06.36.23.22.5-.05.16-.16.29-.29.39-.11.07-.09.28.02.41 .05.06.09.2.19.27 .14.1.15.07.36-.04 .11-.09.25-.15.39-.15 .25 0 .49.06.71.18 .14.07.26.18.33.34 .03.08.06.18.07.27 .06.11.08.24.11.37 0 .27-.12.34-.09.45 .04.19-.06.49-.13.5-.1.02-.22.07-.22.2 .01.1-.02.2-.07.29-.06.07-.2.17-.33.35-.09.12-.09.24-.13.33-.08.13-.14.27-.15.41-.06.13-.25.19-.29.29zm-3.36-4.82c.12 0 .1.09.05.12-.05.01-.12.01-.18-.03-.04-.03.07-.09.13-.09zm3.91 4.55c.02.11.04.32-.01.37-.06.04-.07-.02-.11-.13-.04-.19-.04-.37 0-.56 .05-.13.09-.18.21-.2 .11-.01.13.09.09.2-.04.12-.18.2-.18.32zm.04 1.12c-.01.02-.08.09-.11-.06-.01-.11-.32-.34-.18-.37 0 0 .15-.02.21.03 .08.09.17.19.24.29 0 .03-.1.05-.16.11zm.53-.14c-.03.01-.11.04-.15.01-.03-.03-.06-.07-.07-.13 0-.04-.21-.19-.2-.21 .03-.03.06-.04.09-.07 .07 0 .28.2.29.26 .01.05.07.11.04.14zm.35-.14c-.07.05-.14.08-.17.05-.05-.07-.04-.13-.07-.2-.03-.07-.14-.18-.07-.2 .11 0 .22.06.27.18 .05.07.12.09.04.17zm.33-.72c-.08.26-.22-3.67-.22-3.98 0-.24-.13-2.44.07-2.58 .07-.06.25.61.29 1.77 .03.95.08 4.2-.14 4.79zm.11-8.51c.07-.01.13.09.13.23 0 .14 0 .31-.03.33-.03.01-.07-.15-.1-.25-.03-.1-.1-.31 0-.31zm.52 6.78c-.03.57-.09 1.14-.19 1.71-.02.11-.16-3.42-.16-3.66 0-.16 0-2.81.07-2.77 .23.13.23 1.39.23 1.91 0 .32.07 2.14.06 2.79l-.01.02zm-.13-5.38c-.03.07-.1.11-.17.1-.07-.02-.11-.09-.09-.16 0-.2-.14-.4-.07-.4 .08 0 .18.03.25.09 .08.1.12.22.08.37zm-1.33-3.12c.1.03.19.08.26.15 .09.09.02.63.04.72 .03.08.2.21.92.58 .08.11.12.24.11.38 0 .1-.03.35-.12.35-.07 0-.1-.08-.05-.29 .03-.13-.01-.25-.11-.34-.08-.04-.16-.04-.25 0-.09.06-.08.21-.05.41 .01.14.16.17.09.37-.01.03-.23.1-.29-.04-.02-.07.06-.19.06-.23 .03-.17.03-.33-.02-.5-.08-.04-.47-.41-.47-.51 0-.1-.04-.35-.18-.43-.03-.01-.04-.41-.33-.55-.01-.09.29-.1.39-.07zm-1.08.2c.15-.07.38.04.5.08 .25.09.37.17.38.32 .02.08-.04.59.02.74 .05.14.09.28.12.44 .02.13.02.25-.01.37 0 .07-.13.05-.2.04-.05-.01.09-.36 0-.7-.06-.13-.16-.22-.29-.28-.23-.14-.45-.59-.48-.7-.03-.11-.16-.26-.04-.31zm-.34.41c.04.26.04.48.16.6 .18.15.36.28.56.38 .13.06.12.26.07.37-.07.23-.26.4-.25-.1 .02-.17-.33-.22-.41-.15-.13.11-.07.32-.18.34-.16.03-.16-.37-.04-.44 .06-.05-.1-.79-.35-.93-.17-.1.08.44.01.66-.07.21 0 .62-.29.58-.53-.07-.85-1.04-1.03-1.14-.11-.06 0-.45-.52-1.04-.1-.11.05-.87-.14-.92-.2-.06.03-.77-.17-.84-.22-.09-.07-.56-.4-.76-.13-.14-.21-.31-.24-.5-.05-.2-.05-.47-.15-.62-.35-.54-.31-1.26-.21-1.4 .13-.18.15-.4.1-.61-.08-.43 0-.87.12-1.03 .13-.15-.11-1.5.16-2 .05-.12-.03-.26 0-.27 .12-.06.08-.26 0-.32-.17-.12-.1-.34-.13-.5-.03-.15-.15-.42 0-.51 .22-.13.14.27.31.36 .21.11.55.34.64.51 .08.19.2.34.37.44 .32.22.39.33.49.6 .23.71.18 1.44.22 1.99 .04.56.14.8-.04.94-.14.12.09.84 0 1-.1.16-.16 2.38-.05 2.66 .13.33.16 1.2.24 1.4 .08.2.18.61.46.74 .12.05.26.2.46.11 .09-.06.2.22.23.4zm-1.41-9.94c.04-.03.19-.11.22 0 .03.12.03.24-.11.26-.14.01-.29-.13-.11-.26zm.93 3.7c.01.37-.42 2.24-.41 2.58 .02.34.48 1.27.45 1.58-.03.27.39.9.41 1.1 .03.2-.18.03-.31-.22-.12-.21-.3-.49-.35-.52-.11-.05.07.54.15.7 .08.15.47.54.4.56-.07.03-.61-.42-.76-.74-.14-.39-.25-.81-.33-1.22-.07-.43-.09-.85-.06-1.28 .07-1.38.33-2.65.31-2.96-.03-.32.14-1.67.01-1.84-.07-.1-.17-.55-.03-.65 .11-.09.29.07.36.17 .31.49.16 2.42.16 2.74zm.39-4.31c-.13.14-.24.3-.34.47-.05.13.06.17.11.26 .11.12.11.25.04.3-.12.07-.49-.13-.52-.4-.03-.23.28-.39.16-.46-.11-.07-.47.07-.68-.01-.18-.07-.29-.25-.3-.43-.02-.3.14-.58.37-.77 .07-.04.17-.03.21.04 .03.05.03.1.02.16-.07.16-.38.24-.43.48-.02.18.09.33.26.35 .03 0 .07 0 .1 0 .22-.03.26-.16.59-.17 .34-.02.53.05.41.18zm.8-1.82c-.07.21-.21.41-.37.55-.12.1-.38.29.01.59 .12.1-.04.32-.32.08-.11-.1-.19-.45-.08-.74 .08-.2.21-.31.48-.48 .22-.14.13-.41.29-.41 .09.01.06.19-.01.41zm.06-1.72c-.02.24-.03.48-.07.72 0 0-.39-.54-.28-.95 .04-.23.15-.46.3-.63 .12-.16.17-.37.24-.34 .11.06.15.24.18.48 .03.25-.37.49-.37.72zm.54.72c-.06.17.19.33.3.44 .11.12-.07.13-.26.15-.06 0-.26-.16-.29-.43-.02-.37.12-.71.4-.96 .24-.18.21-.31.15-.42-.08-.2.32.01.32.34 .03.55-.57.71-.62.88zm.79-3.46c-.09.2-.46.59-.54.73-.09.14.08.38.18.33 .08-.06.37-.65.62-.73 .18-.06.25.16.21.38-.06.37-.44.37-.58.67-.09.19-.03.27-.03.39 0 .05-.15-.03-.21-.06-.08-.06-.01-.33-.08-.36-.53-.28-.63-.61-.61-.75 .01-.14.39-.73.55-.88 .17-.16.27-.43.42-.44 .15-.02.15.54.07.72zm-.4-2.19c-.02.21.09.41.27.53 .17.1-.08.11-.15.07-.07-.05-.4-.39-.57-.52-.12-.08.29-.22.29-.32 0-.1.02-.24-.15-.14-.17.09-.46.02-.64-.15-.26-.25-.21-.77-.12-.98 .05-.2.19-.36.36-.46 .07-.04.26-.05.28.12 .01.34-.2.44-.31.65-.1.2 0 .67.26.67 .27 0 .18-.18.32-.2 .2.02.18.44.16.73zm2.91-2.36c-.06.05-.43.42-.57.44-.11.01.17.23-.04.23-.13 0-.26-.12-.37-.3-.12-.19-.23-.46-.39-.46-.36.01-.42-.03-.59-.11-.11-.05-.19-.15-.23-.26-.03-.07.03-.16.21-.33 .08-.08.15-.18.2-.28 .09-.22.2-.43.32-.63 .09-.11.18-.21.28-.31 .06-.04.14 0 .04.1-.09.1-.41.77-.44.82-.09.16-.29.49-.28.57 .01.17.18.13.28.12 .1-.02.11-.36.22-.34 .18.02.15.18.13.29-.07.32.19-.08.27-.02 .09.05-.18.57.18.24 .13-.12.17-.46.35-.36 .08.06.17.16.13.22-.12.14-.38.27-.45.35-.07.09-.04.24.04.27 .16.06.29-.3.52-.4 .11-.07.25.07.19.15zm-.86-1.19c.11.09.26.35.18.37-.08.03-.21-.18-.26-.24-.09-.08-.21-.07-.24-.08-.03-.05-.03-.1.01-.13 .02 0 .02-.02.03-.02 .1 0 .2.03.28.1zm2.41-.88c-.02.14-.19.49-.34.41-.28-.12-.1-.48-.5-.62-.4-.14-.53-.04-.61-.09-.09-.04-.04-.18-.07-.31-.02-.1-.07-.19-.17-.21-.12-.05-.18-.22-.11-.25 .13-.04.38.45.53.26 .07-.1-.15-.14-.1-.41 .04-.15.13-.27.25-.36-.01-.01-.03-.03-.03-.04-.05-.09-.01-.51-.05-.67-.04-.09-.1-.17-.16-.24-.08-.12-.25-.14-.36-.06-.16.11-.55.77-.79 1.07-.23.3-.29.24.34.57 .41.21.26.52.23.65-.03.13-.07.23.2.23 .18-.01.36 0 .52.06 .28.1.52.3.68.54 .16.21.1.43-.02.35-.13-.07-.48-.45-.53-.51-.11-.1-.27-.23-.39-.15-.1.05.04.18.15.28 .14.13.57.56.39.68-.14.12-.36-.25-.46-.38-.09-.13-.18-.31-.33-.37 .01.03.14.26.15.3 .09.17.16.34.18.54 .03.2.07.4-.08.4-.29 0-.14-.19-.32-.3-.22-.29-.43-.59-.61-.9-.03-.08.07-.16.11-.11 .01.01.42.67.54.79 .27.28.09-.11.04-.27-.01-.04-.16-.45-.18-.51-.16-.14-.3-.31-.43-.5-.26-.32-.68-.05-.72-.2 .03.05-.1.22-.18.35-.15.25-.26.52-.32.82-.05.54-.23.3-.43.43-.17.1-.26.43.06.74 .26.27.72.17.95.18 .24.02.13.16.13.36 .03.21.12.43.26.58 .09.12-.08.23-.32.33-.19.09-.43.02-.54-.18-.07-.1-.03-.37-.21-.54-.18-.18-.56-.3-.76-.5-.12-.13-.1-1.11-.05-1.26 .04-.14-.16-.48-.03-.62 .12-.14.5.17.68-.07 .07-.09.26-.26.33-.33 .26-.3.38-.33.4-.29-.04-.12-.32.03-.52.08-.17.04-.7.14-.74.02-.04-.11.11-.21.08-.51-.02-.3-.16-.34-.15-.54 .02-.2.1-.36.49-.38 .3-.02.59.02.87.15 .15.05.32.07.32-.04 0-.11-.37-.46-.65-.54-.14-.04-.29-.02-.42.07-.1.06-.39.01-.4-.14-.01-.16-.11-.17-.13-.36-.01-.13-.08-.47.28-.47 .24 0 .35-.5.6-.61 .21-.06.42-.01.6.1 1.15.65 1.41.31 1.63.71 .09.14.17.29.23.44 .09.26.04.52.05.71 .13.06.07.4.28.55 .29.19.29.27.44.39 .16.22.24.45.22.7zm-2.08-1.18c-.12.01-.26-.03-.34-.11 .23-.2.44-.43.62-.67 .15-.24.42-.02.38.18-.1.3-.35.53-.66.6z"/><path d="m7.95 9.63c.01 0 .03 0 .05 0-.02-.01-.04-.01-.05 0z"/><path d="m13.19 6.16c-.04-.02-.08-.12-.19-.23 0 0 .14.23.19.23z"/><path d="m12.33 47.16c-.12 0-.18.03-.18.07 .02.04.03.1.07.13l.09.11c.12.17.22.26.29.26h.07l.07-.02 .11-.01 .11-.01c.05 0 .09.01.15.04 .08.04.15.11.21.18l.35.46c.06.09.13.14.18.14 .02 0 .04-.03.04-.05-.02-.09-.06-.18-.11-.23l-.41-.52c-.3-.37-.65-.55-1.04-.55zm12.76 0c-.13 0-.18.03-.18.07 .01.04.03.1.07.13l.08.11c.13.17.22.26.29.26h.07l.07-.02 .11-.01 .11-.01c.06 0 .1.01.16.04 .08.04.15.11.2.18l.35.46c.07.09.13.14.18.14 .03 0 .04-.03.04-.05-.01-.09-.05-.18-.11-.23l-.4-.5c-.31-.39-.65-.57-1.04-.57zm-20.86 1.47v.38h.82v.63c-.02.04-.03.1-.05.14-.04.08-.09.11-.13.11-.05 0-.09-.03-.16-.05-.05-.03-.11-.06-.18-.08-.12 0-.18.1-.18.3 0 .23.14.53.42.87l.37.49c.14.17.3.32.46.47 .06.05.14.1.21.1 .06 0 .07-.02.07-.08-.04-.17-.14-.29-.28-.39l-.29-.25c-.17-.17-.25-.28-.25-.37l.01-.08 .06-.1 .17-.29c.04-.05.05-.12.08-.2l.12.02c.05.01.07.04.12.07 .05.06.12.11.19.17 .11.04.22.06.33.06l.2.01c.11 0 .22-.01.33-.05v.82c-.01.14.04.29.13.4 .04.04.08.08.12.11 .07.09.13.13.15.13 .03 0 .03-.01.03-.04 .01-.03.01-.06.01-.07v-2.82h.27 2.48c.06.08.09.2.07.3 .02.14-.05.27-.16.35-.13.06-.25.09-.39.09h-1.13c-.16 0-.33.06-.47.17-.15.11-.25.3-.25.5 0 .24.08.48.22.68l.32.43c.11.14.24.25.38.35 .05.05.11.08.16.08 .03 0 .06-.02.06-.06v-.02c0-.04-.01-.08-.03-.11-.07-.1-.15-.18-.25-.26l-.21-.18c-.16-.14-.25-.34-.25-.56 0-.37.21-.57.61-.62h.75l.14.23c.29.45.61.66.97.66 .18 0 .35-.04.49-.14 .01-.01.04-.03.06-.03 .02 0 .04.03.04.08l-.02.18-.01.19 .01.15c.02.04.04.09.09.13l.26.27c.06.04.1.07.11.07 .01 0 .03-.03.03-.06v-2.89h.91v1.13l-.06.03h-.05-.09c-.1-.02-.2.05-.21.17 0 .01 0 .03 0 .06 .01.14.1.28.22.37l.22.25c.07.1.17.16.28.16 .06 0 .1-.02.14-.04 .04-.02.07-.06.08-.12 0-.03.02-.05.02-.08v-.06l-.02-.13c0-.06.03-.1.09-.13h.98v.9c.04.1.11.2.18.27 .11.13.2.19.22.17 .03-.01.06-.04.06-.14v-2.81h2.09v.89l-.38-.24c-.1-.08-.23-.1-.35-.1-.13 0-.25.01-.38.02-.27.05-.47.29-.45.57 .01.26.12.5.29.69 .15.21.39.32.65.32 .17 0 .32-.04.47-.11l.06-.03c.01-.01.04-.01.05-.01l.04.01v.23c-.01.2.05.4.17.56 .11.12.2.18.22.18 .03 0 .06-.04.06-.13v-2.83h.37v-.4l-13.11-.01zm14.36 0v.39h2.65v.77l-1.44-.03-.08.02c-.04.01-.06.04-.06.06v.01l.03.03c.32.33.48.55.48.68 0 .27-.12.4-.37.4-.1 0-.21-.03-.29-.1-.08-.07-.17-.14-.25-.23-.1-.12-.18-.27-.25-.41l-.11-.27c-.04-.09-.09-.14-.15-.14-.07 0-.07.04-.07.11l.01.06 .14.33c.07.17.17.34.28.48 .15.23.34.41.57.56 .13.07.3.11.47.11 .23 0 .41-.19.41-.43 0-.01 0-.03 0-.04 0-.13-.02-.27-.08-.39l-.15-.28-.02-.06c0-.03.05-.04.1-.05 .06-.02.11-.03.17-.03h.66v1.32c0 .07.05.13.1.17 .11.1.22.19.35.27 .03 0 .04-.04.04-.12v-2.82h1.11c.06.08.08.2.07.3 .01.14-.06.27-.17.35-.12.06-.25.09-.39.09l-.18.01c-.04 0-.07.04-.07.09 .05.1.1.2.16.28l.16.26c.29.45.63.67.97.67 .19 0 .35-.05.49-.15 .01-.01.04-.02.06-.02 .02 0 .04.02.04.07v.18l-.02.19 .02.15c.01.05.04.09.08.13l.26.27c.06.04.1.07.12.07 .01 0 .02-.03.02-.05v-2.89h2.27v.74h-.75-.28c-.17 0-.33.07-.47.17-.17.11-.25.31-.25.51 0 .24.08.48.23.68l.32.43c.11.14.24.26.38.36 .05.04.11.07.18.07 .03 0 .05-.02.05-.05v-.01c0-.04-.01-.09-.02-.13-.07-.1-.16-.18-.25-.25l-.21-.19c-.17-.14-.25-.35-.25-.57 0-.37.21-.58.61-.62h.73v1.33c0 .06.03.13.07.17l.16.13c.07.07.13.13.22.17 .01 0 .03-.07.03-.17v-2.79h.3v-.4h-8.94v.05zm-13.13.38h1.21v.98c-.19.12-.42.16-.64.15l-.35-.02c-.08 0-.15-.01-.22-.07v-1.04zm4.62 0h.95v.94c-.02.21-.13.4-.29.5-.17.11-.38.18-.57.18-.11 0-.24-.04-.34-.1-.13-.07-.2-.15-.2-.25 0-.05.02-.09.07-.09l.2-.04c.21-.09.31-.2.31-.34l-.03-.22-.05-.28c-.03-.1-.05-.2-.05-.3zm2.78 0h1.11v1.17h-1.11v-1.17zm10.22 0h.94v.94c0 .2-.11.4-.29.5-.17.11-.38.18-.59.18-.11 0-.23-.04-.33-.1-.14-.07-.21-.15-.21-.25 0-.05.03-.09.07-.09l.21-.04c.21-.09.31-.2.31-.34l-.05-.22-.05-.28c0-.1-.01-.2-.01-.3zm-7.15.91c.03 0 .05 0 .08 0 .17 0 .33.03.5.09v.4c-.11.08-.22.15-.35.21-.11.04-.23.08-.36.1-.05.01-.12.03-.18.03-.21 0-.32-.09-.32-.27 .04-.34.24-.53.63-.56z"/></g></svg>
